<?xml version="1.0" encoding="UTF-8"?>
<svg width="226px" height="41px" viewBox="0 0 226 41" version="1.1" xmlns="http://www.w3.org/2000/svg" xmlns:xlink="http://www.w3.org/1999/xlink">
    <!-- Generator: sketchtool 51.2 (57519) - http://www.bohemiancoding.com/sketch -->
    <title>863203A5-83FA-4B54-AD0F-68E648E135B4</title>
    <desc>Created with sketchtool.</desc>
    <defs></defs>
    <g id="1440" stroke="none" stroke-width="1" fill="none" fill-rule="evenodd">
        <g id="lp_halva_main_land_02_hover_elements" transform="translate(-81.000000, -51.000000)" fill="#FFFFFF">
            <g id="Шапка" transform="translate(81.000000, 51.000000)">
                <g id="logo">
                    <path d="M65.4788126,39.3077878 L51.271783,39.3077878 C51.0047681,39.3077878 50.9545459,39.0509102 50.9545459,39.0509102 L45.2710644,25.1552571 C40.2195459,28.7339714 43.0043681,34.4195837 44.0079756,35.4671755 C44.4315163,36.1524612 41.7404422,40.467502 36.8956719,40.467502 C32.3237756,40.467502 29.0065978,36.7289714 29.2577089,32.0951347 C29.5791311,26.6806245 35.4249978,21.1556653 42.8955533,18.9994 L34.3720052,2.00782857 C34.3720052,2.00782857 34.2723978,1.63799184 34.6917533,1.63799184 L47.9998052,1.63799184 C48.2718422,1.63799184 48.3731237,1.95176735 48.3731237,1.95176735 L53.8532052,15.8976245 C59.2772052,12.7330939 56.1609163,5.47525714 55.0593756,4.42599184 C54.6877311,4.06033878 56.1609163,0.792889796 61.0090348,0.37284898 C66.2681385,-0.107436735 69.5861533,3.52984898 69.4865459,8.2138898 C69.3869385,13.7338286 64.0550126,19.3173592 56.4321163,21.5765429 L65.645383,39.0509102 C65.645383,39.0509102 65.7968867,39.3077878 65.4788126,39.3077878 M98.7192274,36.3114408 C99.4055978,34.8898286 95.6062867,36.6804408 96.6165904,28.3105837 C97.0853311,24.685849 98.9343459,12.6870735 98.9343459,12.6870735 C98.9343459,12.4795633 98.7811681,12.423502 98.7811681,12.423502 L88.2411978,12.423502 C88.2411978,12.423502 87.9323311,12.4795633 87.9323311,12.7330939 C87.9323311,12.7330939 87.7155385,14.1639102 87.4510348,16.3703796 C86.1912941,13.4217265 83.8793978,11.3700531 80.2424719,11.3700531 C73.3486348,11.3700531 68.8261237,17.7919918 67.9271459,25.0021347 C67.0290052,32.0474408 69.8180126,39.9914 76.4624126,39.9914 C80.1386793,39.9914 83.3001681,37.4711551 85.5015756,34.0505837 C85.7133459,37.7815837 88.3081607,40.0516449 91.9266719,40.0516449 C94.8814126,40.0516449 97.9725904,37.9974612 98.7192274,36.3114408 M86.665057,25.6338694 C86.1912941,29.5723796 84.4000348,32.7335633 81.8219607,32.7335633 C79.2388644,32.7335633 78.2971978,29.5723796 78.7701237,25.6338694 C79.2388644,21.6794612 80.9799015,18.4781143 83.5638348,18.4781143 C86.1410719,18.4781143 87.1346348,21.6794612 86.665057,25.6338694 M129.530561,39.0509102 C129.530561,39.0509102 132.584909,14.3161959 132.73725,13.111298 C132.73725,12.9506449 132.637642,12.8945837 132.584909,12.8945837 L132.637642,12.8945837 C124.431331,11.2077265 117.006813,11.3156653 109.739657,12.8945837 C109.678553,12.8945837 109.526213,12.9506449 109.526213,13.1598286 C109.526213,13.1598286 108.517583,21.6317673 106.945627,25.7317673 C103.946524,33.3084 100.680405,33.6782367 100.574939,34.6731143 C100.421761,35.7859714 101.733398,40.467502 106.631739,40.467502 C110.893931,40.467502 113.846161,37.7330531 115.422301,31.4190531 C116.484501,27.2596449 117.111442,22.6299918 117.327398,17.7342571 L121.586242,17.7342571 C120.638716,25.5225837 118.952924,39.0509102 118.952924,39.0509102 C118.952924,39.3077878 119.16302,39.3077878 119.16302,39.3077878 L129.326324,39.3077878 C129.326324,39.3077878 129.530561,39.3077878 129.530561,39.0509102 M161.662739,25.9468082 C161.088531,18.4781143 152.603487,16.8975224 146.602768,18.9508694 L146.871457,17.8940735 C168.353176,15.5311347 164.871939,-0.316620408 154.236546,0.00468571429 C141.927079,0.322644898 135.134524,15.5311347 135.134524,26.9935633 C135.134524,34.2572571 139.440242,40.2566449 147.407161,40.2566449 C155.554042,40.2566449 162.295539,34.4681143 161.662739,25.9468082 M148.816731,23.3094204 C151.445864,23.7897061 152.299642,25.6338694 152.130561,28.4678898 C152.082013,29.9932571 150.77205,34.308298 148.024057,34.308298 C144.187079,34.308298 145.340516,25.9468082 145.764894,23.6290531 C145.764894,23.6290531 147.456546,23.1027469 148.816731,23.3094204 M148.024057,13.8944816 C148.558924,12.0469714 150.083168,6.89603265 152.345679,6.89603265 C153.663176,6.89603265 153.712561,7.63821633 153.663176,8.31680816 C153.242983,11.5298694 148.024057,13.8944816 148.024057,13.8944816 M195.26559,36.3114408 C195.945264,34.8898286 192.154324,36.6804408 193.14705,28.3105837 C193.627509,24.685849 195.466479,12.6870735 195.466479,12.6870735 C195.466479,12.4795633 195.31079,12.423502 195.31079,12.423502 L184.787561,12.423502 C184.787561,12.423502 184.470324,12.4795633 184.470324,12.7330939 C184.470324,12.7330939 184.260227,14.1639102 183.99405,16.3703796 C182.727613,13.4217265 180.414042,11.3700531 176.787161,11.3700531 C169.886627,11.3700531 165.364116,17.7919918 164.473509,25.0021347 C163.57202,32.0474408 166.362701,39.9914 172.987013,39.9914 C176.68002,39.9914 179.83565,37.4711551 182.052961,34.0505837 C182.255524,37.7815837 184.836109,40.0516449 188.473872,40.0516449 C191.425264,40.0516449 194.520627,37.9974612 195.26559,36.3114408 M183.203887,25.6338694 C182.727613,29.5723796 180.944724,32.7335633 178.368324,32.7335633 C175.781879,32.7335633 174.829331,29.5723796 175.310627,25.6338694 C175.781879,21.6794612 177.525427,18.4781143 180.091783,18.4781143 C182.679901,18.4781143 183.675976,21.6794612 183.203887,25.6338694 M216.35139,28.7808286 C226.562405,29.0987878 226.349798,19.6796653 225.244072,20.2586857 C224.828901,20.4176653 223.351531,22.6785224 219.563101,22.4701755 C215.721939,22.307849 213.880457,20.6804 209.091768,20.4728898 C200.877087,20.1047265 199.394694,29.5723796 200.557339,29.154849 C201.085509,29.0435633 202.400494,27.0462776 206.250864,27.0462776 C209.091768,26.9885429 212.556264,28.5231143 216.35139,28.7808286 M16.1480348,28.7808286 C26.3573756,29.0987878 26.1439311,19.6796653 25.034857,20.2586857 C24.6163385,20.4176653 23.1372941,22.6785224 19.3538867,22.4701755 C15.5085385,22.307849 13.6720793,20.6804 8.87753111,20.4728898 C0.663686667,20.1047265 -0.811172593,29.5723796 0.34644963,29.154849 C0.88299037,29.0435633 2.19044222,27.0462776 6.0433237,27.0462776 C8.87753111,26.9885429 12.3470496,28.5231143 16.1480348,28.7808286" id="Fill-1"></path>
                </g>
            </g>
        </g>
    </g>
</svg>