<svg width="226" height="41" viewBox="0 0 226 41" xmlns="http://www.w3.org/2000/svg"><title>863203A5-83FA-4B54-AD0F-68E648E135B4</title><path d="M65.479 39.308H51.272c-.267 0-.317-.257-.317-.257L45.27 25.155c-5.051 3.579-2.267 9.265-1.263 10.312.424.685-2.268 5-7.112 5-4.572 0-7.89-3.738-7.638-8.372.321-5.414 6.167-10.94 13.638-13.096L34.372 2.008s-.1-.37.32-.37H48c.272 0 .373.314.373.314l5.48 13.946c5.424-3.165 2.308-10.423 1.206-11.472-.371-.366 1.102-3.633 5.95-4.053 5.26-.48 8.577 3.157 8.478 7.84-.1 5.52-5.432 11.104-13.055 13.364l9.213 17.474s.152.257-.166.257m33.24-2.997c.687-1.421-3.113.37-2.102-8 .468-3.625 2.317-15.624 2.317-15.624 0-.207-.153-.263-.153-.263h-10.54s-.309.056-.309.31c0 0-.216 1.43-.481 3.636-1.26-2.948-3.572-5-7.209-5-6.893 0-11.416 6.422-12.315 13.632-.898 7.045 1.891 14.99 8.535 14.99 3.677 0 6.838-2.52 9.04-5.941.211 3.73 2.806 6 6.425 6 2.954 0 6.046-2.054 6.792-3.74M86.665 25.634c-.474 3.938-2.265 7.1-4.843 7.1-2.583 0-3.525-3.162-3.052-7.1.469-3.955 2.21-7.156 4.794-7.156 2.577 0 3.57 3.201 3.101 7.156m42.866 13.417s3.054-24.735 3.206-25.94c0-.16-.1-.216-.152-.216h.053c-8.207-1.687-15.631-1.58-22.898 0-.061 0-.214.056-.214.265 0 0-1.008 8.472-2.58 12.572-3 7.576-6.266 7.946-6.371 8.941-.153 1.113 1.158 5.795 6.057 5.795 4.262 0 7.214-2.735 8.79-9.049 1.063-4.16 1.69-8.789 1.905-13.685h4.26c-.948 7.789-2.634 21.317-2.634 21.317 0 .257.21.257.21.257h10.163s.205 0 .205-.257m32.132-13.104c-.574-7.469-9.06-9.05-15.06-6.996l.268-1.057c21.482-2.363 18-18.21 7.366-17.89-12.31.319-19.102 15.527-19.102 26.99 0 7.263 4.305 13.263 12.272 13.263 8.147 0 14.889-5.789 14.256-14.31m-12.846-2.638c2.629.48 3.483 2.325 3.314 5.159-.049 1.525-1.359 5.84-4.107 5.84-3.837 0-2.683-8.361-2.26-10.679 0 0 1.693-.526 3.053-.32m-.793-9.415c.535-1.847 2.06-6.998 4.322-6.998 1.317 0 1.367.742 1.317 1.42-.42 3.214-5.639 5.578-5.639 5.578m47.242 22.417c.68-1.421-3.112.37-2.119-8 .48-3.625 2.32-15.624 2.32-15.624 0-.207-.156-.263-.156-.263h-10.523s-.318.056-.318.31c0 0-.21 1.43-.476 3.636-1.266-2.948-3.58-5-7.207-5-6.9 0-11.423 6.422-12.313 13.632-.902 7.045 1.889 14.99 8.513 14.99 3.693 0 6.849-2.52 9.066-5.941.203 3.73 2.783 6 6.42 6 2.952 0 6.048-2.054 6.793-3.74m-12.062-10.677c-.476 3.938-2.26 7.1-4.836 7.1-2.586 0-3.539-3.162-3.057-7.1.47-3.955 2.214-7.156 4.78-7.156 2.589 0 3.585 3.201 3.113 7.156m33.147 3.147c10.211.318 9.999-9.101 8.893-8.522-.415.159-1.892 2.42-5.68 2.211-3.842-.162-5.684-1.79-10.472-1.997-8.215-.368-9.697 9.1-8.535 8.682.529-.111 1.843-2.109 5.694-2.109 2.84-.057 6.305 1.477 10.1 1.735m-200.203 0c10.21.318 9.996-9.101 8.887-8.522-.419.159-1.898 2.42-5.681 2.211-3.845-.162-5.682-1.79-10.476-1.997-8.214-.368-9.69 9.1-8.532 8.682.537-.111 1.844-2.109 5.697-2.109 2.835-.057 6.304 1.477 10.105 1.735" fill="#FFF" fill-rule="evenodd"/></svg>