<?xml version="1.0" standalone="no"?>
<!DOCTYPE svg PUBLIC "-//W3C//DTD SVG 1.1//EN" "http://www.w3.org/Graphics/SVG/1.1/DTD/svg11.dtd" >
<svg xmlns="http://www.w3.org/2000/svg" xmlns:xlink="http://www.w3.org/1999/xlink" version="1.1">
<metadata></metadata>
<defs>
<font id="sf_ui_displaythin" horiz-adv-x="1192" >
<font-face units-per-em="2048" ascent="1638" descent="-410" />
<missing-glyph horiz-adv-x="386" />
<glyph horiz-adv-x="0" />
<glyph unicode="&#xd;" horiz-adv-x="0" />
<glyph unicode=" "  horiz-adv-x="386" />
<glyph unicode="&#x09;" horiz-adv-x="386" />
<glyph unicode="&#xa0;" horiz-adv-x="386" />
<glyph unicode="!" horiz-adv-x="510" d="M184 61q0 29 21 49.5t50 20.5q30 0 50.5 -20.5t20.5 -49.5q0 -30 -20.5 -50.5t-50.5 -20.5q-29 0 -50 20.5t-21 50.5zM214 1443h82l-3 -1017h-76z" />
<glyph unicode="&#x22;" horiz-adv-x="564" d="M107 984v459h74v-459h-74zM384 984v459h73v-459h-73z" />
<glyph unicode="#" horiz-adv-x="1224" d="M40 443l12 67h250l85 430h-235l13 67h235l92 441h69l-90 -441h382l92 441h69l-91 -441h271l-14 -67h-271l-86 -430h258l-14 -67h-258l-92 -443h-70l92 443h-383l-92 -443h-69l92 443h-247zM370 509h384l85 431h-382z" />
<glyph unicode="$" d="M86 385h77q8 -133 122 -227t278 -102v656l-22 6q-226 55 -322.5 139.5t-96.5 227.5q0 158 123 263t318 114v135h64v-135q185 -9 311 -113.5t131 -252.5h-77q-5 116 -110.5 201.5t-254.5 94.5v-617l24 -6q243 -58 344.5 -146.5t101.5 -245.5q0 -165 -130.5 -273.5 t-339.5 -119.5v-151h-64v151q-203 8 -338 121.5t-139 279.5zM199 1089q0 -116 83 -184.5t281 -115.5v603q-157 -6 -260.5 -92t-103.5 -211zM627 55q170 6 281.5 96.5t111.5 221.5q0 128 -89 202t-304 123v-643z" />
<glyph unicode="%" horiz-adv-x="1405" d="M50 1108q0 160 68.5 253t184.5 93q117 0 185.5 -93t68.5 -253q0 -159 -68.5 -252t-185.5 -93q-116 0 -184.5 93t-68.5 252zM123 0l552 741l522 702h85l-547 -736l-528 -707h-84zM124 1108q0 -131 48.5 -208t130.5 -77q83 0 131.5 77t48.5 208q0 132 -48.5 209t-131.5 77 t-131 -77t-48 -209zM849 334q0 159 68 252t185 93t185 -93t68 -252t-68 -252t-185 -93t-185 93t-68 252zM922 334q0 -132 48.5 -208.5t131.5 -76.5t131.5 76.5t48.5 208.5t-48.5 208.5t-131.5 76.5t-131.5 -76.5t-48.5 -208.5z" />
<glyph unicode="&#x26;" horiz-adv-x="1374" d="M74 366q0 229 276 378q5 2 54 28l48 26q-123 126 -170 204.5t-47 158.5q0 127 99 214.5t244 87.5t241 -85t96 -215q0 -105 -82 -196.5t-268 -185.5l451 -476q58 90 91 201.5t33 219.5v79h75v-77q0 -122 -39.5 -249.5t-106.5 -224.5l246 -254h-101l-192 199 q-94 -103 -225.5 -161.5t-267.5 -58.5q-201 0 -328 108.5t-127 278.5zM153 368q0 -138 106 -229t275 -91q116 0 238 56t198 144l-471 499q-2 -1 -52.5 -28t-51.5 -28q-242 -133 -242 -323zM311 1158q0 -68 43.5 -136.5t165.5 -192.5q166 81 242.5 162.5t76.5 169.5 q0 100 -75.5 168t-185.5 68q-109 0 -188 -70.5t-79 -168.5z" />
<glyph unicode="'" horiz-adv-x="287" d="M107 984v459h74v-459h-74z" />
<glyph unicode="(" horiz-adv-x="570" d="M153 598q0 494 272 845h74q-119 -156 -193 -375.5t-74 -469.5t72.5 -468t193.5 -387h-76q-124 159 -196.5 377t-72.5 478z" />
<glyph unicode=")" horiz-adv-x="570" d="M71 1443h74q271 -350 271 -845q0 -260 -72 -478t-196 -377h-76q121 170 193.5 388t72.5 467q0 250 -74 469.5t-193 375.5z" />
<glyph unicode="*" horiz-adv-x="953" d="M145 947l279 156l-279 156l30 56l275 -168l-6 322h66l-7 -322l275 168l31 -56l-279 -155l279 -156l-31 -56l-275 166l7 -320h-66l6 321l-275 -167z" />
<glyph unicode="+" d="M106 539v73h453v490h74v-490h453v-73h-453v-504h-74v504h-453z" />
<glyph unicode="," horiz-adv-x="496" d="M155 -222l65 402h83l-86 -402h-62z" />
<glyph unicode="-" horiz-adv-x="868" d="M106 539v73h656v-73h-656z" />
<glyph unicode="." horiz-adv-x="496" d="M178 60q0 29 20.5 49.5t49.5 20.5t49.5 -20.5t20.5 -49.5t-20.5 -49.5t-49.5 -20.5t-49.5 20.5t-20.5 49.5z" />
<glyph unicode="/" horiz-adv-x="518" d="M0 -331l446 1774h72l-448 -1774h-70z" />
<glyph unicode="0" horiz-adv-x="1194" d="M86 722q0 341 137.5 541.5t374.5 200.5q236 0 373 -200t137 -542q0 -343 -137 -543t-373 -200q-237 0 -374.5 200t-137.5 543zM166 722q0 -310 116 -491t316 -181t315.5 181t115.5 491q0 308 -116 489.5t-315 181.5q-200 0 -316 -181.5t-116 -489.5z" />
<glyph unicode="1" horiz-adv-x="804" d="M88 1100v88q28 18 183 119t213 136h78v-1443h-78v1354h-2q-40 -24 -195.5 -125.5t-198.5 -128.5z" />
<glyph unicode="2" horiz-adv-x="1142" d="M124 1054q4 178 129 294t314 116q184 0 309.5 -113t125.5 -279q0 -115 -64.5 -223.5t-243.5 -295.5l-451 -477v-4h813v-72h-927v60l513 544q166 175 223.5 269.5t57.5 195.5q0 137 -103 230.5t-255 93.5q-154 0 -257 -96t-107 -243h-77z" />
<glyph unicode="3" horiz-adv-x="1146" d="M87 363h77q5 -134 120.5 -223.5t285.5 -89.5q175 0 290.5 96.5t115.5 244.5q0 151 -114 237t-315 86h-163v70h161q163 0 266 86t103 222q0 130 -100.5 215.5t-257.5 85.5q-147 0 -248.5 -84.5t-110.5 -213.5h-77q9 161 132 265t307 104q186 0 310 -104t124 -261 q0 -134 -82 -226.5t-224 -118.5v-4q168 -11 268.5 -107.5t100.5 -249.5q0 -179 -138.5 -296.5t-347.5 -117.5q-206 0 -342.5 109.5t-140.5 274.5z" />
<glyph unicode="4" horiz-adv-x="1181" d="M70 361v73q297 460 707 1013l114 1v-1015h229v-72h-229v-361h-78v361h-743zM157 433h656v935h-2q-357 -475 -654 -933v-2z" />
<glyph unicode="5" horiz-adv-x="1171" d="M124 353h79q17 -131 128.5 -217t264.5 -86q179 0 297.5 116.5t118.5 292.5q0 175 -116.5 292.5t-289.5 117.5q-120 0 -220 -56.5t-159 -156.5h-80l86 787h765v-72h-697l-68 -617h3q59 86 160.5 136t218.5 50q204 0 340 -137t136 -343q0 -208 -140.5 -344.5t-355.5 -136.5 q-123 0 -227 48t-168.5 133.5t-75.5 192.5z" />
<glyph unicode="6" horiz-adv-x="1179" d="M90 684q0 360 143.5 570t389.5 210q175 0 298.5 -98t148.5 -258h-80q-23 125 -126 205t-242 80q-219 0 -339.5 -205.5t-114.5 -570.5h4q38 144 164 235.5t287 91.5q205 0 342 -136t137 -339q0 -210 -138.5 -350t-347.5 -140q-124 0 -225.5 53t-168.5 151 q-132 176 -132 501zM200 482q0 -182 120 -306.5t295 -124.5q172 0 289.5 120t117.5 296q0 173 -117 289.5t-290 116.5q-111 0 -207 -53t-152 -143t-56 -195z" />
<glyph unicode="7" horiz-adv-x="1085" d="M82 1371v72h920v-76l-685 -1367h-86l690 1368v3h-839z" />
<glyph unicode="8" horiz-adv-x="1189" d="M93 394q0 138 93.5 240.5t243.5 130.5v3q-130 29 -207 116.5t-77 206.5q0 163 125.5 268t322.5 105t322.5 -105t125.5 -268q0 -116 -77.5 -204t-204.5 -119v-3q149 -28 242.5 -130.5t93.5 -240.5q0 -183 -139 -299t-363 -116q-223 0 -362 116.5t-139 298.5zM173 397 q0 -151 116 -249t305 -98t305.5 98t116.5 249q0 145 -116.5 237t-305.5 92q-188 0 -304.5 -92.5t-116.5 -236.5zM224 1087q0 -126 104.5 -207t265.5 -81q162 0 265.5 81t103.5 207q0 133 -101.5 219.5t-267.5 86.5q-165 0 -267.5 -87t-102.5 -219z" />
<glyph unicode="9" horiz-adv-x="1179" d="M77 969q0 213 138 354t348 141q125 0 226 -53.5t168 -152.5q132 -178 132 -499q0 -360 -142 -570t-390 -210q-179 0 -301 98.5t-147 257.5h80q23 -125 123 -205t245 -80q211 0 330 186t125 513q1 26 -1 77h-1h-1q-36 -140 -164 -233.5t-289 -93.5q-207 0 -343 134.5 t-136 335.5zM156 970q0 -168 116 -284t292 -116q170 0 292.5 116.5t122.5 274.5q0 181 -119.5 306t-295.5 125q-174 0 -291 -121.5t-117 -300.5z" />
<glyph unicode=":" horiz-adv-x="496" d="M178 60q0 29 20.5 49.5t49.5 20.5t49.5 -20.5t20.5 -49.5t-20.5 -49.5t-49.5 -20.5t-49.5 20.5t-20.5 49.5zM178 830q0 29 20.5 49.5t49.5 20.5t49.5 -20.5t20.5 -49.5t-20.5 -49.5t-49.5 -20.5t-49.5 20.5t-20.5 49.5z" />
<glyph unicode=";" horiz-adv-x="496" d="M140 -222l65 402h84l-86 -402h-63zM178 830q0 29 20.5 49.5t49.5 20.5t49.5 -20.5t20.5 -49.5t-20.5 -49.5t-49.5 -20.5t-49.5 20.5t-20.5 49.5z" />
<glyph unicode="&#x3c;" d="M189 507v67l815 564v-92l-730 -501v-6l730 -494v-92z" />
<glyph unicode="=" d="M112 353v70h969v-70h-969zM112 728v70h969v-70h-969z" />
<glyph unicode="&#x3e;" d="M189 46l730 494v6l-730 500v92l815 -564v-66l-815 -555v93z" />
<glyph unicode="?" horiz-adv-x="931" d="M60 1096q10 158 119.5 261t277.5 103q169 0 280 -101t111 -253q0 -102 -50 -180t-163 -157q-102 -70 -138.5 -126.5t-36.5 -144.5v-90h-77v98q-1 98 41.5 165t152.5 145q103 73 146.5 139.5t43.5 147.5q0 125 -89 205.5t-223 80.5q-130 0 -218 -80.5t-101 -212.5h-76z M354 61q0 29 20.5 49.5t49.5 20.5q30 0 50.5 -20.5t20.5 -49.5q0 -30 -20.5 -50.5t-50.5 -20.5q-29 0 -49.5 20.5t-20.5 50.5z" />
<glyph unicode="@" horiz-adv-x="1741" d="M72 607q0 178 61.5 331.5t169.5 262t260 170t329 61.5q173 0 321.5 -55.5t253 -153.5t163.5 -238.5t59 -305.5q0 -238 -85 -373t-236 -135q-94 0 -157 54.5t-76 149.5h-5q-36 -98 -105.5 -148.5t-166.5 -50.5q-154 0 -248.5 115.5t-94.5 302.5q0 186 95 302.5t248 116.5 q95 0 168 -50.5t101 -135.5h5v165h71v-552q0 -95 45.5 -150t127.5 -55q115 0 180 117t65 328q0 201 -92.5 358t-259.5 244t-381 87q-213 0 -384 -98t-267.5 -272.5t-96.5 -392.5q0 -172 56 -317t155 -245t238.5 -155.5t303.5 -55.5q213 0 327 38v-64q-109 -37 -328 -37 q-178 0 -330 60t-260 168.5t-169 265t-61 343.5zM590 592q0 -155 76 -252t198 -97q121 0 194 98t73 261q0 160 -71.5 252.5t-194.5 92.5q-121 0 -198 -99.5t-77 -255.5z" />
<glyph unicode="A" horiz-adv-x="1221" d="M21 0l550 1443h80l549 -1443h-85l-180 481h-649l-179 -481h-86zM312 552h598l-297 788h-5z" />
<glyph unicode="B" horiz-adv-x="1160" d="M128 0v1443h481q188 0 304.5 -97t116.5 -254q0 -129 -77.5 -221t-206.5 -117v-6q158 -17 259 -114t101 -249q0 -178 -130.5 -281.5t-356.5 -103.5h-491zM207 72h405q194 0 304 84.5t110 230.5q0 150 -115 235t-320 85h-384v-635zM207 778h371q170 0 271 83t101 225 q0 130 -96 207.5t-257 77.5h-390v-593z" />
<glyph unicode="C" horiz-adv-x="1326" d="M67 730q0 337 172 535.5t463 198.5q220 0 382 -138.5t185 -344.5h-79q-23 174 -162.5 291.5t-325.5 117.5q-254 0 -404 -178t-150 -482q0 -310 150.5 -493.5t403.5 -183.5q192 0 328.5 105.5t159.5 277.5h79q-25 -205 -181.5 -331t-385.5 -126q-290 0 -462.5 203.5 t-172.5 547.5z" />
<glyph unicode="D" horiz-adv-x="1329" d="M128 0v1443h446q328 0 508 -189t180 -532q0 -344 -180 -533t-508 -189h-446zM208 73h363q294 0 452.5 168.5t158.5 479.5q0 313 -158.5 481t-452.5 168h-363v-1297z" />
<glyph unicode="E" horiz-adv-x="1068" d="M128 0v1443h841v-73h-762v-594h726v-72h-726v-631h762v-73h-841z" />
<glyph unicode="F" horiz-adv-x="1033" d="M128 0v1443h830v-73h-751v-603h691v-72h-691v-695h-79z" />
<glyph unicode="G" horiz-adv-x="1358" d="M67 730q0 331 173.5 532.5t458.5 201.5q217 0 374.5 -120t198.5 -317h-81q-43 166 -176.5 264.5t-315.5 98.5q-250 0 -400.5 -180t-150.5 -479q0 -304 152 -491t399 -187q232 0 367.5 136.5t135.5 369.5v83h-503v72h582v-143q0 -276 -155.5 -434t-426.5 -158 q-186 0 -330 94t-223 264.5t-79 392.5z" />
<glyph unicode="H" horiz-adv-x="1327" d="M128 0v1443h79v-666h913v666h79v-1443h-79v705h-913v-705h-79z" />
<glyph unicode="I" horiz-adv-x="335" d="M128 0v1443h79v-1443h-79z" />
<glyph unicode="J" horiz-adv-x="951" d="M41 320h78q7 -119 92 -194.5t214 -75.5q150 0 234.5 89t84.5 250v1054h80v-1058q0 -189 -106.5 -299t-291.5 -110q-165 0 -273 96.5t-112 247.5z" />
<glyph unicode="K" horiz-adv-x="1142" d="M128 0v1443h79v-806h6l750 806h101l-594 -636l660 -807h-101l-615 751l-207 -223v-528h-79z" />
<glyph unicode="L" horiz-adv-x="1024" d="M128 0v1443h79v-1370h757v-73h-836z" />
<glyph unicode="M" horiz-adv-x="1604" d="M128 0v1443h88l583 -1340h6l581 1340h90v-1443h-76v1279h-4l-556 -1276h-76l-556 1276h-4v-1279h-76z" />
<glyph unicode="N" horiz-adv-x="1341" d="M128 0v1443h82l919 -1299h6v1299h79v-1443h-75l-927 1307h-6v-1307h-78z" />
<glyph unicode="O" horiz-adv-x="1420" d="M67 722q0 340 174 541t469 201t469 -201t174 -541q0 -342 -173.5 -542.5t-469.5 -200.5t-469.5 200.5t-173.5 542.5zM148 722q0 -307 152.5 -488t409.5 -181t409.5 181t152.5 488q0 306 -152.5 487t-409.5 181q-258 0 -410 -181t-152 -487z" />
<glyph unicode="P" horiz-adv-x="1107" d="M128 0v1443h461q210 0 336.5 -117.5t126.5 -313.5t-126.5 -313t-337.5 -117h-381v-582h-79zM207 654h369q183 0 289.5 96t106.5 262q0 167 -106.5 263t-289.5 96h-369v-717z" />
<glyph unicode="Q" horiz-adv-x="1420" d="M67 722q0 340 174 541t469 201t469 -201t174 -541q0 -221 -76.5 -388t-217.5 -258l185 -253h-91l-159 217q-128 -61 -284 -61q-296 0 -469.5 200.5t-173.5 542.5zM148 722q0 -306 152.5 -487.5t409.5 -181.5q132 0 238 50l-196 269h91l170 -233q125 82 191.5 232 t66.5 351q0 306 -152 487t-409 181t-409.5 -181t-152.5 -487z" />
<glyph unicode="R" horiz-adv-x="1147" d="M128 0v1443h468q214 0 338.5 -110.5t124.5 -301.5q0 -156 -88.5 -262.5t-245.5 -137.5l371 -631h-92l-361 619q-21 -3 -51 -3h-385v-616h-79zM207 688h385q181 0 283.5 91t102.5 250q0 161 -103.5 251.5t-285.5 90.5h-382v-683z" />
<glyph unicode="S" horiz-adv-x="1137" d="M57 385h79q9 -147 134 -240t313 -93q183 0 299.5 92.5t116.5 234.5q0 113 -81 183t-263 116l-171 42q-201 51 -294.5 136.5t-93.5 220.5q0 167 137 277t336 110q203 0 340 -106t144 -266h-79q-8 130 -122.5 214.5t-284.5 84.5q-165 0 -277.5 -88.5t-112.5 -223.5 q0 -107 81 -174t257 -111l161 -41q211 -52 307.5 -138.5t96.5 -229.5q0 -180 -139 -293t-364 -113q-222 0 -366.5 113t-153.5 293z" />
<glyph unicode="T" horiz-adv-x="1132" d="M21 1370v73h1090v-73h-505v-1370h-79v1370h-506z" />
<glyph unicode="U" horiz-adv-x="1334" d="M128 501v942h79v-939q0 -207 124 -329t336 -122t336 122t124 329v939h79v-942q0 -237 -145.5 -379.5t-393.5 -142.5t-393.5 142.5t-145.5 379.5z" />
<glyph unicode="V" horiz-adv-x="1223" d="M21 1443h85l503 -1338h5l503 1338h84l-550 -1443h-80z" />
<glyph unicode="W" horiz-adv-x="1803" d="M42 1443h82l356 -1306h5l379 1306h74l380 -1306h5l355 1306h83l-403 -1443h-70l-384 1295h-5l-384 -1295h-70z" />
<glyph unicode="X" horiz-adv-x="1215" d="M42 0l516 722v2l-514 719h95l469 -658h2l471 658h92l-518 -721v-2l515 -720h-95l-468 656h-2l-471 -656h-92z" />
<glyph unicode="Y" horiz-adv-x="1172" d="M22 1443h93l469 -733h5l469 733h92l-524 -814v-629h-79v629z" />
<glyph unicode="Z" horiz-adv-x="1173" d="M71 0v62l925 1303v5h-896v73h997v-62l-923 -1303v-5h928v-73h-1031z" />
<glyph unicode="[" horiz-adv-x="580" d="M162 -236v1679h370v-65h-294v-1549h308v-65h-384z" />
<glyph unicode="\" horiz-adv-x="518" d="M0 1443h72l446 -1774h-70z" />
<glyph unicode="]" horiz-adv-x="580" d="M35 -171h308v1549h-294v65h370v-1679h-384v65z" />
<glyph unicode="^" horiz-adv-x="782" d="M60 802l294 603h75l293 -603h-80l-248 519h-6l-248 -519h-80z" />
<glyph unicode="_" horiz-adv-x="807" d="M-63 -142h933v-63h-933v63z" />
<glyph unicode="`" horiz-adv-x="758" d="M230 1556h93l230 -303h-74z" />
<glyph unicode="a" horiz-adv-x="996" d="M83 281q0 133 94.5 208t277.5 89l355 26v92q0 136 -78 212t-217 76q-132 0 -215.5 -64.5t-102.5 -181.5h-74q13 144 120.5 230t271.5 86q172 0 272.5 -95t100.5 -257v-702h-75v223h-2q-39 -105 -145 -171.5t-238 -66.5q-153 0 -249 82.5t-96 213.5zM161 281 q0 -99 78.5 -163.5t199.5 -64.5q154 0 262.5 97.5t108.5 235.5v154l-345 -26q-149 -11 -226.5 -70.5t-77.5 -162.5z" />
<glyph unicode="b" horiz-adv-x="1092" d="M125 0v1443h77v-676h3q38 131 143 209t244 78q194 0 316 -148t122 -385q0 -239 -122 -387t-316 -148q-139 0 -244 78.5t-146 213.5h-3v-278h-74zM202 519q0 -204 105.5 -333.5t271.5 -129.5t269 128.5t103 336.5q0 206 -103 334.5t-269 128.5t-271.5 -130.5 t-105.5 -334.5z" />
<glyph unicode="c" horiz-adv-x="994" d="M63 520q0 244 124.5 389t333.5 145q165 0 279 -93t138 -235h-77q-23 114 -115 186t-225 72q-174 0 -277 -126t-103 -338q0 -213 103 -338.5t278 -125.5q132 0 223.5 68t114.5 181h77q-23 -142 -137 -230.5t-278 -88.5q-210 0 -334.5 144t-124.5 390z" />
<glyph unicode="d" horiz-adv-x="1099" d="M63 520q0 238 123.5 386t318.5 148q141 0 247.5 -81t141.5 -206h2v676h78v-1443h-73v279h-3q-37 -129 -143.5 -211t-248.5 -82q-195 0 -319 148.5t-124 385.5zM141 521q0 -207 104.5 -336t270.5 -129q168 0 274.5 129.5t106.5 334.5t-106.5 334.5t-274.5 129.5 q-166 0 -270.5 -128.5t-104.5 -334.5z" />
<glyph unicode="e" horiz-adv-x="1027" d="M63 519q0 242 125 388.5t331 146.5q202 0 324 -138t122 -365v-44h-823v-4q0 -209 105 -328.5t281 -119.5q138 0 230 65.5t116 170.5h78q-26 -135 -140.5 -220t-284.5 -85q-213 0 -338.5 142t-125.5 391zM143 572h742q-1 185 -102 299t-265 114q-161 0 -264 -113.5 t-111 -299.5z" />
<glyph unicode="f" horiz-adv-x="520" d="M20 973v67h145v147q0 243 231 243q45 0 78 -10v-66q-35 8 -73 8q-77 0 -117.5 -42.5t-40.5 -136.5v-143h223v-67h-223v-973h-78v973h-145z" />
<glyph unicode="g" horiz-adv-x="1083" d="M63 521q0 238 122 385.5t318 147.5q140 0 245 -81.5t144 -209.5h2v277h73v-1028q0 -176 -117.5 -281.5t-316.5 -105.5q-164 0 -276.5 75.5t-134.5 189.5h80q27 -87 116 -142t219 -55q161 0 257 86.5t96 229.5v267h-3q-35 -125 -140 -206t-245 -81q-196 0 -317.5 147 t-121.5 385zM141 520q0 -206 102.5 -333t268.5 -127q167 0 272.5 128t105.5 333t-105.5 334t-272.5 129q-166 0 -268.5 -128.5t-102.5 -335.5z" />
<glyph unicode="h" horiz-adv-x="1053" d="M125 0v1443h77v-631h3q36 111 132.5 176.5t226.5 65.5q171 0 275.5 -105t104.5 -279v-670h-77v661q0 149 -87 236t-233 87q-153 0 -249 -102t-96 -265v-617h-77z" />
<glyph unicode="i" horiz-adv-x="327" d="M102 1357q0 25 18 42.5t44 17.5q25 0 43 -17.5t18 -42.5t-18 -43t-43 -18q-26 0 -44 18t-18 43zM125 0v1040h77v-1040h-77z" />
<glyph unicode="j" horiz-adv-x="327" d="M-98 -283h27q103 0 149.5 45.5t46.5 149.5v1128h77v-1125q0 -140 -66.5 -203t-203.5 -63h-30v68zM102 1357q0 25 18 42.5t44 17.5q25 0 43 -17.5t18 -42.5t-18 -43t-43 -18q-26 0 -44 18t-18 43z" />
<glyph unicode="k" horiz-adv-x="908" d="M125 0v1443h77v-936h1l585 533h101l-487 -448l492 -592h-95l-456 544l-141 -126v-418h-77z" />
<glyph unicode="l" horiz-adv-x="327" d="M125 0v1443h77v-1443h-77z" />
<glyph unicode="m" horiz-adv-x="1590" d="M115 0v1040h73v-228h2q30 108 113 175t201 67q119 0 203.5 -70t108.5 -177h3q28 105 117.5 176t212.5 71q150 0 241.5 -96.5t91.5 -257.5v-700h-78v682q0 140 -73 221t-200 81q-131 0 -212.5 -95t-81.5 -245v-644h-77v685q0 134 -76 216.5t-196 82.5q-131 0 -213 -100 t-82 -265v-619h-78z" />
<glyph unicode="n" horiz-adv-x="1039" d="M115 0v1040h73v-228h2q37 111 133 176.5t227 65.5q172 0 276 -104t104 -279v-671h-78v662q0 150 -87 236t-233 86q-152 0 -245.5 -101.5t-93.5 -263.5v-619h-78z" />
<glyph unicode="o" horiz-adv-x="1052" d="M63 520q0 244 127 389t336 145q210 0 337 -144.5t127 -389.5q0 -244 -127 -389t-337 -145q-209 0 -336 145t-127 389zM141 520q0 -214 104.5 -339t280.5 -125t281 125.5t105 338.5q0 214 -105 339t-281 125t-280.5 -125t-104.5 -339z" />
<glyph unicode="p" horiz-adv-x="1083" d="M115 -341v1381h73v-277h3q36 126 142 208.5t246 82.5q196 0 318.5 -148t122.5 -386t-122 -386t-318 -148q-140 0 -244.5 81t-140.5 206h-2v-614h-78zM192 520q0 -205 105.5 -334.5t272.5 -129.5q165 0 268 128.5t103 334.5q0 207 -103 336t-268 129q-167 0 -272.5 -129.5 t-105.5 -334.5z" />
<glyph unicode="q" horiz-adv-x="1089" d="M63 520q0 238 123.5 386t319.5 148q142 0 248.5 -82t143.5 -209h3v277h73v-1381h-78v614h-2q-35 -125 -141.5 -206t-247.5 -81q-196 0 -319 148t-123 386zM141 519q0 -207 104 -335t270 -128q168 0 274.5 129.5t106.5 334.5q0 204 -107 334t-274 130q-166 0 -270 -129 t-104 -336z" />
<glyph unicode="r" horiz-adv-x="594" d="M115 0v1040h73v-205h2q32 106 104 162.5t175 56.5q55 0 97 -17v-78q-42 21 -108 21q-121 0 -193 -93t-72 -241v-646h-78z" />
<glyph unicode="s" horiz-adv-x="893" d="M57 294h77q11 -104 99 -172.5t218 -68.5q132 0 219.5 60.5t87.5 156.5q0 81 -54.5 129.5t-180.5 78.5l-168 41q-134 32 -199.5 93.5t-65.5 160.5q0 123 103.5 201.5t255.5 78.5q157 0 257.5 -84.5t112.5 -227.5h-76q-12 111 -90 178.5t-206 67.5q-117 0 -198.5 -59.5 t-81.5 -150.5q0 -76 52 -120t165 -72l162 -38q155 -38 222.5 -101t67.5 -170q0 -128 -108.5 -209t-277.5 -81q-165 0 -274.5 88.5t-118.5 219.5z" />
<glyph unicode="t" horiz-adv-x="535" d="M18 973v67h155v273h77v-273h209v-67h-209v-733q0 -92 36 -132.5t115 -40.5q64 0 72 2v-69q-14 -2 -83 -2q-115 0 -166 55.5t-51 183.5v736h-155z" />
<glyph unicode="u" horiz-adv-x="1039" d="M109 365v675h77v-663q0 -151 85 -236t229 -85q150 0 248 99.5t98 262.5v622h78v-1040h-73v227h-3q-35 -106 -135.5 -173.5t-228.5 -67.5q-169 0 -272 103t-103 276z" />
<glyph unicode="v" horiz-adv-x="889" d="M6 1040h83l354 -962h3l354 962h82l-391 -1040h-93z" />
<glyph unicode="w" horiz-adv-x="1384" d="M8 1040h81l267 -954h2l290 954h88l289 -954h3l266 954h82l-303 -1040h-90l-290 940h-3l-288 -940h-92z" />
<glyph unicode="x" horiz-adv-x="868" d="M9 0l381 528l-379 512h92l331 -453h3l331 453h91l-380 -510l378 -530h-90l-332 467h-3l-333 -467h-90z" />
<glyph unicode="y" horiz-adv-x="891" d="M6 1040h84l354 -965h3l354 965h83l-410 -1090q-70 -186 -130 -247.5t-171 -61.5q-30 0 -53 7v69q24 -8 55 -8q69 0 112.5 43t83.5 149l33 85z" />
<glyph unicode="z" horiz-adv-x="898" d="M64 0v64l678 906v3h-677v67h768v-64l-679 -906v-3h680v-67h-770z" />
<glyph unicode="{" horiz-adv-x="694" d="M103 569v113q96 0 135 50t39 175v284q0 168 79 241t261 73h50v-66h-65q-130 0 -190 -57.5t-60 -180.5v-335q0 -110 -40.5 -165.5t-127.5 -63.5v-22q87 -8 127.5 -63.5t40.5 -165.5v-395q0 -237 250 -237h65v-67h-50q-180 0 -260 75.5t-80 247.5v336q0 124 -38.5 173.5 t-135.5 49.5z" />
<glyph unicode="|" horiz-adv-x="355" d="M143 -330v1773h69v-1773h-69z" />
<glyph unicode="}" horiz-adv-x="694" d="M26 -246h65q251 0 251 237v395q0 110 40.5 165.5t127.5 63.5v22q-87 8 -127.5 63.5t-40.5 165.5v335q0 123 -60.5 180.5t-190.5 57.5h-65v66h51q182 0 261 -73t79 -241v-284q0 -125 39 -175t136 -50v-113q-97 0 -136 -49.5t-39 -173.5v-336q0 -172 -80 -247.5t-260 -75.5 h-51v67z" />
<glyph unicode="~" d="M136 559q-1 133 64.5 213t174.5 80q56 0 106 -26.5t127 -97.5q65 -60 110.5 -85t88.5 -25q73 0 122.5 64.5t53.5 164.5h74q0 -130 -71 -216.5t-179 -86.5q-64 0 -114.5 25.5t-129.5 98.5q-68 64 -108 87.5t-81 23.5q-73 0 -117.5 -59.5t-47.5 -160.5h-73z" />
<glyph unicode="&#xa2;" d="M108 699q0 241 131.5 390t339.5 162v199h77v-198q165 -10 286.5 -104t142.5 -238h-79q-24 124 -133.5 198.5t-255.5 74.5q-187 0 -309 -132t-122 -352q0 -221 121.5 -353.5t309.5 -132.5q148 0 257 70.5t131 194.5h78q-21 -142 -141.5 -233t-285.5 -100v-213h-77v213 q-209 14 -340 162.5t-131 391.5z" />
<glyph unicode="&#xa3;" d="M66 0v71q76 19 137.5 49t111.5 73t78 103t28 132q0 100 -57 254h-264v67h239q-26 68 -40 110.5t-27 106.5t-13 121q0 177 122 282t339 105q102 0 188.5 -17.5t131.5 -41.5v-74q-45 25 -130.5 43t-185.5 18q-184 0 -284.5 -86t-100.5 -230q0 -56 13.5 -120t27.5 -105 t41 -112h469v-67h-444q53 -150 53 -253q0 -73 -25.5 -135t-69 -104t-89 -70t-97.5 -46v-4h913v-70h-1065z" />
<glyph unicode="&#xa5;" d="M32 1443h93l470 -711h4l469 711h92l-490 -741h306v-65h-339v-208h339v-66h-339v-363h-80v363h-341v66h341v208h-341v65h308z" />
<glyph unicode="&#xa8;" horiz-adv-x="758" d="M159 1323q0 27 20 46.5t48 19.5q27 0 47 -19.5t20 -46.5q0 -28 -20 -47.5t-47 -19.5q-28 0 -48 19.5t-20 47.5zM464 1323q0 27 20 46.5t47 19.5q28 0 48 -19.5t20 -46.5q0 -28 -20 -47.5t-48 -19.5q-27 0 -47 19.5t-20 47.5z" />
<glyph unicode="&#xa9;" horiz-adv-x="1732" d="M96 626q0 217 102 394t278.5 277t389.5 100q214 0 390.5 -100t278 -277t101.5 -394q0 -216 -101.5 -393t-278 -277.5t-390.5 -100.5q-213 0 -389.5 100.5t-278.5 277.5t-102 393zM164 626q0 -148 55 -279.5t148.5 -224t223.5 -146.5t275 -54q146 0 276 54t223.5 146.5 t148 223.5t54.5 280q0 199 -92.5 360.5t-253.5 252.5t-356 91q-145 0 -275 -53.5t-224 -146t-148.5 -224t-54.5 -280.5zM471 632q0 196 109.5 311.5t283.5 115.5q141 0 237 -76.5t117 -187.5h-68q-24 89 -99 145.5t-187 56.5q-143 0 -233.5 -98t-90.5 -267q0 -170 90 -270 t234 -100q116 0 190 52.5t94 139.5h69q-22 -115 -115 -184.5t-237 -69.5q-174 0 -284 117t-110 315z" />
<glyph unicode="&#xab;" horiz-adv-x="1185" d="M153 565v5l370 409h95l-366 -408v-8l366 -408h-95zM567 565v5l370 409h95l-366 -408v-8l366 -408h-95z" />
<glyph unicode="&#xad;" horiz-adv-x="868" d="M106 539v73h656v-73h-656z" />
<glyph unicode="&#xae;" horiz-adv-x="1095" d="M121 1075q0 178 124 301t303 123t302.5 -123t123.5 -301q0 -177 -124 -300.5t-302 -123.5t-302.5 123.5t-124.5 300.5zM180 1075q0 -154 107 -260.5t261 -106.5t260.5 106.5t106.5 260.5q0 155 -106.5 261.5t-260.5 106.5t-261 -106.5t-107 -261.5zM388 864v449h177 q66 0 106.5 -38t40.5 -99q0 -106 -106 -131l128 -181h-61l-123 176h-111v-176h-51zM439 1083h112q106 0 106 93q0 42 -28 66t-78 24h-112v-183z" />
<glyph unicode="&#xb4;" horiz-adv-x="758" d="M205 1253l230 303h93l-249 -303h-74z" />
<glyph unicode="&#xb8;" horiz-adv-x="758" d="M197 -391q43 -17 122 -17q68 0 113.5 32t45.5 81q0 50 -41 76t-119 26h-49v43l64 157h60v-7l-58 -141q99 0 153 -39.5t54 -112.5q0 -75 -60.5 -122.5t-156.5 -47.5q-72 -2 -128 16v56z" />
<glyph unicode="&#xbb;" horiz-adv-x="1185" d="M153 155l365 408v8l-365 408h95l370 -409v-5l-370 -410h-95zM567 155l365 408v8l-365 408h94l371 -409v-5l-371 -410h-94z" />
<glyph unicode="&#x2c6;" horiz-adv-x="758" d="M80 1253l268 303h62l268 -303h-80l-217 249h-3l-217 -249h-81z" />
<glyph unicode="&#x2da;" horiz-adv-x="770" d="M213 1408q0 71 50.5 122t121.5 51t121.5 -51t50.5 -122t-50.5 -122t-121.5 -51t-121.5 51t-50.5 122zM261 1408q0 -52 36 -88.5t88 -36.5t88 36.5t36 88.5t-36 88.5t-88 36.5t-88 -36.5t-36 -88.5z" />
<glyph unicode="&#x2dc;" horiz-adv-x="758" d="M95 1266q0 98 38.5 155t111.5 57q36 0 68.5 -17t56 -41t45.5 -48t47.5 -41t51.5 -17q89 0 89 154h61q0 -97 -39 -155t-111 -58q-36 0 -67.5 17t-55 41t-45.5 48t-47.5 41t-52.5 17q-91 0 -91 -153h-60z" />
<glyph unicode="&#x400;" horiz-adv-x="1067" d="M138 0v1443h841v-73h-762v-594h726v-72h-726v-631h762v-73h-841zM230 1843h95l280 -290h-78z" />
<glyph unicode="&#x401;" horiz-adv-x="1067" d="M138 0v1443h841v-73h-762v-594h726v-72h-726v-631h762v-73h-841zM338 1630q0 27 20 46.5t48 19.5q27 0 47 -19.5t20 -46.5q0 -28 -20 -47.5t-47 -19.5q-28 0 -48 19.5t-20 47.5zM643 1630q0 27 20 46.5t47 19.5q28 0 48 -19.5t20 -46.5q0 -28 -20 -47.5t-48 -19.5 q-27 0 -47 19.5t-20 47.5z" />
<glyph unicode="&#x402;" horiz-adv-x="1558" d="M31 1370v73h1096v-73h-509v-654h5q70 71 171 111t215 40q206 0 328.5 -121.5t122.5 -323.5q0 -194 -108.5 -314t-283.5 -120q-76 0 -108 13v72q33 -10 106 -10q144 0 229.5 98.5t85.5 259.5q0 172 -101.5 273t-273.5 101q-116 0 -222 -51t-166 -133v-611h-79v1370h-508z " />
<glyph unicode="&#x403;" horiz-adv-x="1024" d="M138 0v1443h824v-73h-745v-1370h-79zM479 1553l279 290h96l-297 -290h-78z" />
<glyph unicode="&#x404;" horiz-adv-x="1345" d="M77 730q0 337 172 535.5t463 198.5q218 0 380 -134.5t186 -334.5h-80q-24 168 -163 281.5t-323 113.5q-245 0 -394 -165t-159 -448h743v-72h-743q4 -300 154.5 -476t398.5 -176q191 0 326.5 101.5t158.5 267.5h80q-25 -199 -181.5 -321t-383.5 -122q-290 0 -462.5 203.5 t-172.5 547.5z" />
<glyph unicode="&#x405;" horiz-adv-x="1157" d="M67 385h79q9 -147 134 -240t313 -93q183 0 299.5 92.5t116.5 234.5q0 113 -81 183t-263 116l-171 42q-201 51 -294.5 136.5t-93.5 220.5q0 167 137 277t336 110q203 0 340 -106t144 -266h-79q-8 130 -122.5 214.5t-284.5 84.5q-165 0 -277.5 -88.5t-112.5 -223.5 q0 -107 81 -174t257 -111l161 -41q211 -52 307.5 -138.5t96.5 -229.5q0 -180 -139 -293t-364 -113q-222 0 -366.5 113t-153.5 293z" />
<glyph unicode="&#x406;" horiz-adv-x="355" d="M138 0v1443h79v-1443h-79z" />
<glyph unicode="&#x407;" horiz-adv-x="355" d="M-43 1630q0 27 20 46.5t48 19.5q27 0 47 -19.5t20 -46.5q0 -28 -20 -47.5t-47 -19.5q-28 0 -48 19.5t-20 47.5zM138 0v1443h79v-1443h-79zM262 1630q0 27 20 46.5t47 19.5q28 0 48 -19.5t20 -46.5q0 -28 -20 -47.5t-48 -19.5q-27 0 -47 19.5t-20 47.5z" />
<glyph unicode="&#x408;" horiz-adv-x="971" d="M51 320h78q7 -119 92 -194.5t214 -75.5q150 0 234.5 89t84.5 250v1054h80v-1058q0 -189 -106.5 -299t-291.5 -110q-165 0 -273 96.5t-112 247.5z" />
<glyph unicode="&#x409;" horiz-adv-x="2059" d="M25 0v73q24 -8 54 -8q56 0 96 31t64 89t37 128.5t18 163.5l58 966h791v-588h387q210 0 337 -116.5t127 -310.5t-126.5 -311t-337.5 -117h-466v1370h-637l-55 -900q-6 -108 -23 -189.5t-49 -149.5t-86.5 -104t-130.5 -36q-13 0 -58 9zM1143 73h374q184 0 290.5 95.5 t106.5 259.5t-107 259.5t-290 95.5h-374v-710z" />
<glyph unicode="&#x40a;" horiz-adv-x="2099" d="M138 0v1443h79v-666h887v666h80v-666h386q211 0 337.5 -103.5t126.5 -276.5q0 -180 -126.5 -288.5t-336.5 -108.5h-467v705h-887v-705h-79zM1184 73h374q183 0 289.5 87.5t106.5 236.5q0 142 -107 225t-289 83h-374v-632z" />
<glyph unicode="&#x40b;" horiz-adv-x="1578" d="M31 1370v73h1096v-73h-509v-654h5q72 73 172 112t213 39q201 0 323 -128.5t122 -340.5v-398h-80v389q0 185 -100.5 295.5t-269.5 110.5q-112 0 -218 -51t-167 -133v-611h-79v1370h-508z" />
<glyph unicode="&#x40c;" horiz-adv-x="1167" d="M138 0v1443h79v-679h5l753 679h107l-778 -697l835 -746h-114l-803 718h-5v-718h-79zM507 1553l279 290h96l-297 -290h-78z" />
<glyph unicode="&#x40d;" horiz-adv-x="1361" d="M138 0v1443h78v-1312h8l921 1312h79v-1443h-79v1311h-7l-922 -1311h-78zM363 1843h95l280 -290h-78z" />
<glyph unicode="&#x40e;" horiz-adv-x="1138" d="M32 1443h87l462 -1005h8l436 1005h84l-468 -1062q-29 -66 -51.5 -112.5t-50.5 -94.5t-55.5 -78.5t-61 -56t-72.5 -37t-85 -11.5q-44 0 -69 10v73q27 -9 69 -9q89 0 151 70t127 210zM316 1789h64q0 -84 57 -133t149 -49t149 49t57 133h64q0 -109 -74.5 -172.5 t-195.5 -63.5t-195.5 63.5t-74.5 172.5z" />
<glyph unicode="&#x40f;" horiz-adv-x="1334" d="M138 0v1443h79v-1370h900v1370h79v-1443h-491v-285h-76v285h-491z" />
<glyph unicode="&#x410;" horiz-adv-x="1241" d="M31 0l550 1443h80l549 -1443h-85l-180 481h-649l-179 -481h-86zM322 552h598l-297 788h-5z" />
<glyph unicode="&#x411;" horiz-adv-x="1150" d="M138 0v1443h811v-73h-732v-540h391q211 0 337.5 -113t126.5 -302q0 -188 -126.5 -301.5t-336.5 -113.5h-471zM217 73h379q183 0 289.5 92t106.5 250q0 157 -107 249.5t-289 92.5h-379v-684z" />
<glyph unicode="&#x412;" horiz-adv-x="1180" d="M138 0v1443h481q188 0 304.5 -97t116.5 -254q0 -129 -77.5 -221t-206.5 -117v-6q158 -17 259 -114t101 -249q0 -178 -130.5 -281.5t-356.5 -103.5h-491zM217 72h405q194 0 304 84.5t110 230.5q0 150 -115 235t-320 85h-384v-635zM217 778h371q170 0 271 83t101 225 q0 130 -96 207.5t-257 77.5h-390v-593z" />
<glyph unicode="&#x413;" horiz-adv-x="1024" d="M138 0v1443h824v-73h-745v-1370h-79z" />
<glyph unicode="&#x414;" horiz-adv-x="1372" d="M16 73h96q137 68 157 399l59 971h833v-1370h187v-359h-76v286h-1181v-286h-75v359zM228 73h854v1297h-681l-54 -903q-9 -142 -35.5 -237.5t-83.5 -150.5v-6z" />
<glyph unicode="&#x415;" horiz-adv-x="1067" d="M138 0v1443h841v-73h-762v-594h726v-72h-726v-631h762v-73h-841z" />
<glyph unicode="&#x416;" horiz-adv-x="1804" d="M19 0l756 745l-702 698h107l676 -679h5v679h80v-679h5l677 679h104l-700 -696l757 -747h-111l-727 718h-5v-718h-80v718h-5l-728 -718h-109z" />
<glyph unicode="&#x417;" horiz-adv-x="1121" d="M65 361h78q10 -131 127.5 -222t288.5 -91q188 0 302.5 97.5t114.5 246.5q0 154 -110.5 237t-325.5 83h-174v72h172q178 0 282.5 85.5t104.5 223.5q0 130 -99.5 216t-263.5 86q-154 0 -256 -83t-120 -215h-77q18 165 141 268t314 103q195 0 318 -106t123 -265 q0 -130 -81.5 -221.5t-224.5 -119.5v-5q169 -13 263.5 -110t94.5 -251q0 -178 -138.5 -296t-360.5 -118q-207 0 -345 111t-148 274z" />
<glyph unicode="&#x418;" horiz-adv-x="1361" d="M138 0v1443h78v-1312h8l921 1312h79v-1443h-79v1311h-7l-922 -1311h-78z" />
<glyph unicode="&#x419;" horiz-adv-x="1361" d="M138 0v1443h78v-1312h8l921 1312h79v-1443h-79v1311h-7l-922 -1311h-78zM411 1789h64q0 -84 57 -133t149 -49t149 49t57 133h64q0 -109 -74.5 -172.5t-195.5 -63.5t-195.5 63.5t-74.5 172.5z" />
<glyph unicode="&#x41a;" horiz-adv-x="1167" d="M138 0v1443h79v-679h5l753 679h107l-778 -697l835 -746h-114l-803 718h-5v-718h-79z" />
<glyph unicode="&#x41b;" horiz-adv-x="1288" d="M25 0v73q24 -8 54 -8q103 0 153.5 107t61.5 305l58 966h798v-1443h-79v1370h-644l-55 -900q-7 -110 -24.5 -193.5t-50 -150t-86.5 -101t-128 -34.5q-13 0 -58 9z" />
<glyph unicode="&#x41c;" horiz-adv-x="1624" d="M138 0v1443h88l583 -1340h6l581 1340h90v-1443h-76v1279h-4l-556 -1276h-76l-556 1276h-4v-1279h-76z" />
<glyph unicode="&#x41d;" horiz-adv-x="1347" d="M138 0v1443h79v-666h913v666h79v-1443h-79v705h-913v-705h-79z" />
<glyph unicode="&#x41e;" horiz-adv-x="1440" d="M77 722q0 340 174 541t469 201t469 -201t174 -541q0 -342 -173.5 -542.5t-469.5 -200.5t-469.5 200.5t-173.5 542.5zM158 722q0 -307 152.5 -488t409.5 -181t409.5 181t152.5 488q0 306 -152.5 487t-409.5 181q-258 0 -410 -181t-152 -487z" />
<glyph unicode="&#x41f;" horiz-adv-x="1334" d="M138 0v1443h1058v-1443h-79v1370h-900v-1370h-79z" />
<glyph unicode="&#x420;" horiz-adv-x="1127" d="M138 0v1443h461q210 0 336.5 -117.5t126.5 -313.5t-126.5 -313t-337.5 -117h-381v-582h-79zM217 654h369q183 0 289.5 96t106.5 262q0 167 -106.5 263t-289.5 96h-369v-717z" />
<glyph unicode="&#x421;" horiz-adv-x="1345" d="M77 730q0 337 172 535.5t463 198.5q218 0 380 -134.5t186 -334.5h-80q-24 168 -163 281.5t-323 113.5q-254 0 -404 -178t-150 -482q0 -310 150.5 -493.5t403.5 -183.5q191 0 326.5 101.5t158.5 267.5h80q-25 -199 -181.5 -321t-383.5 -122q-290 0 -462.5 203.5 t-172.5 547.5z" />
<glyph unicode="&#x422;" horiz-adv-x="1152" d="M31 1370v73h1090v-73h-505v-1370h-79v1370h-506z" />
<glyph unicode="&#x423;" horiz-adv-x="1138" d="M32 1443h87l462 -1005h8l436 1005h84l-468 -1062q-29 -66 -51.5 -112.5t-50.5 -94.5t-55.5 -78.5t-61 -56t-72.5 -37t-85 -11.5q-44 0 -69 10v73q27 -9 69 -9q89 0 151 70t127 210z" />
<glyph unicode="&#x424;" horiz-adv-x="1527" d="M68 723q0 265 176.5 420.5t479.5 157.5v155h79v-155q302 -2 479 -157.5t177 -420.5t-176.5 -420.5t-479.5 -157.5v-158h-79v158q-303 2 -479.5 157.5t-176.5 420.5zM147 723q0 -229 157 -366.5t420 -139.5v1012q-264 -2 -420.5 -139.5t-156.5 -366.5zM803 217 q263 2 419.5 139.5t156.5 366.5q0 230 -156 367t-420 139v-1012z" />
<glyph unicode="&#x425;" horiz-adv-x="1235" d="M52 0l516 722v2l-514 719h95l469 -658h2l471 658h92l-518 -721v-2l515 -720h-95l-468 656h-2l-471 -656h-92z" />
<glyph unicode="&#x426;" horiz-adv-x="1400" d="M138 0v1443h79v-1370h893v1370h79v-1370h187v-358h-75v285h-1163z" />
<glyph unicode="&#x427;" horiz-adv-x="1226" d="M109 1054v389h79v-384q0 -191 115.5 -300t307.5 -109q76 0 146 17t119.5 43.5t81.5 49.5t51 44v639h79v-1443h-79v713h-6q-59 -55 -160.5 -96t-231.5 -41q-232 0 -367 131t-135 347z" />
<glyph unicode="&#x428;" horiz-adv-x="1770" d="M138 0v1443h79v-1370h629v1370h79v-1370h628v1370h79v-1443h-1494z" />
<glyph unicode="&#x429;" horiz-adv-x="1844" d="M138 0v1443h79v-1370h629v1370h79v-1370h628v1370h79v-1370h188v-358h-76v285h-1606z" />
<glyph unicode="&#x42a;" horiz-adv-x="1378" d="M31 1370v73h431v-588h387q210 0 337 -116.5t127 -310.5t-126.5 -311t-337.5 -117h-466v1370h-352zM462 73h374q184 0 290.5 95.5t106.5 259.5t-107 259.5t-290 95.5h-374v-710z" />
<glyph unicode="&#x42b;" horiz-adv-x="1509" d="M138 0v1443h79v-588h387q210 0 337 -116.5t127 -310.5t-126.5 -311t-337.5 -117h-466zM217 73h374q184 0 290.5 95.5t106.5 259.5t-107 259.5t-290 95.5h-374v-710zM1292 0v1443h79v-1443h-79z" />
<glyph unicode="&#x42c;" horiz-adv-x="1133" d="M138 0v1443h79v-588h387q210 0 337 -116.5t127 -310.5t-126.5 -311t-337.5 -117h-466zM217 73h374q184 0 290.5 95.5t106.5 259.5t-107 259.5t-290 95.5h-374v-710z" />
<glyph unicode="&#x42d;" horiz-adv-x="1353" d="M67 422h80q26 -163 166.5 -266t335.5 -103q248 0 395.5 177t150.5 475h-736v72h734q-11 281 -158 447t-386 166q-185 0 -330 -113.5t-172 -281.5h-80q18 132 100.5 239.5t209.5 168.5t272 61q290 0 458.5 -200.5t168.5 -541.5q0 -344 -167.5 -543.5t-459.5 -199.5 q-234 0 -394 121.5t-188 321.5z" />
<glyph unicode="&#x42e;" horiz-adv-x="1853" d="M138 0v1443h79v-666h312q14 321 180.5 505.5t442.5 184.5q289 0 456.5 -200t167.5 -545t-167 -545.5t-457 -200.5q-287 0 -453 195.5t-171 533.5h-311v-705h-79zM608 722q0 -307 147 -489.5t397 -182.5q249 0 396 182.5t147 489.5t-147 489t-396 182t-396.5 -182 t-147.5 -489z" />
<glyph unicode="&#x42f;" horiz-adv-x="1157" d="M37 0l423 622q-167 25 -268.5 131.5t-101.5 273.5q0 191 125 303.5t338 112.5h466v-1443h-79v612h-395l-416 -612h-92zM170 1027q0 -160 105.5 -251t290.5 -91h374v685h-374q-185 0 -290.5 -91.5t-105.5 -251.5z" />
<glyph unicode="&#x430;" horiz-adv-x="1016" d="M93 281q0 133 94.5 208t277.5 89l355 26v92q0 136 -78 212t-217 76q-132 0 -215.5 -64.5t-102.5 -181.5h-74q13 144 120.5 230t271.5 86q172 0 272.5 -95t100.5 -257v-702h-75v223h-2q-39 -105 -145 -171.5t-238 -66.5q-153 0 -249 82.5t-96 213.5zM171 281 q0 -99 78.5 -163.5t199.5 -64.5q154 0 262.5 97.5t108.5 235.5v154l-345 -26q-149 -11 -226.5 -70.5t-77.5 -162.5z" />
<glyph unicode="&#x431;" horiz-adv-x="1088" d="M85 577q0 239 27.5 399t92 263t164.5 148t251 47q88 0 154 7q113 10 173 36v-68q-50 -27 -167 -37q-62 -8 -158 -8q-121 -2 -202 -33t-136 -103t-84.5 -181t-44.5 -276h4q48 126 152.5 195.5t246.5 69.5q208 0 333 -142t125 -380q0 -243 -127 -388t-339 -145 q-223 0 -344 154.5t-121 441.5zM164 514q0 -212 104.5 -337.5t281.5 -125.5t282 125.5t105 337.5q0 207 -105 329.5t-282 122.5q-178 0 -282 -122.5t-104 -329.5z" />
<glyph unicode="&#x432;" horiz-adv-x="951" d="M125 0v1040h387q146 0 230 -68t84 -186q0 -93 -54 -159t-143 -83v-3q108 -10 180 -76t72 -175q0 -140 -95 -215t-268 -75h-393zM202 67h314q142 0 215.5 57t73.5 168q0 104 -81 158.5t-224 54.5h-298v-438zM202 571h293q119 0 187 56.5t68 152.5q0 91 -64 141.5 t-180 50.5h-304v-401z" />
<glyph unicode="&#x433;" horiz-adv-x="831" d="M125 0v1040h652v-67h-575v-973h-77z" />
<glyph unicode="&#x434;" horiz-adv-x="1149" d="M23 67h82q102 67 128 374q29 309 42 599h673v-973h171v-342h-74v275h-948v-275h-74v342zM203 67h667v906h-525q-18 -323 -39 -537q-25 -278 -103 -365v-4z" />
<glyph unicode="&#x435;" horiz-adv-x="1046" d="M73 519q0 242 125 388.5t331 146.5q202 0 324 -138t122 -365v-44h-823v-4q0 -209 105 -328.5t281 -119.5q138 0 230 65.5t116 170.5h78q-26 -135 -140.5 -220t-284.5 -85q-213 0 -338.5 142t-125.5 391zM153 572h742q-1 185 -102 299t-265 114q-161 0 -264 -113.5 t-111 -299.5z" />
<glyph unicode="&#x436;" horiz-adv-x="1379" d="M25 0l545 541l-522 499h103l495 -477h3v477h77v-477h4l495 477h101l-519 -496l546 -544h-107l-516 516h-4v-516h-77v516h-3l-517 -516h-104z" />
<glyph unicode="&#x437;" horiz-adv-x="909" d="M62 265h78q22 -96 105.5 -156.5t216.5 -60.5q135 0 215.5 62.5t80.5 169.5q0 112 -80.5 167.5t-225.5 55.5h-167v66h167q127 0 198.5 57t71.5 154q0 94 -69 150.5t-190 56.5q-126 0 -205.5 -62t-101.5 -162h-76q24 129 122 210.5t260 81.5q157 0 247 -73.5t90 -198.5 q0 -91 -58.5 -156.5t-149.5 -83.5v-4q107 -15 175.5 -80.5t68.5 -173.5q0 -143 -102 -223.5t-271 -80.5q-166 0 -271.5 77.5t-128.5 206.5z" />
<glyph unicode="&#x438;" horiz-adv-x="1065" d="M125 0v1040h77v-919h4l657 919h77v-1040h-77v918h-4l-657 -918h-77z" />
<glyph unicode="&#x439;" horiz-adv-x="1065" d="M125 0v1040h77v-919h4l657 919h77v-1040h-77v918h-4l-657 -918h-77zM291 1503h65q0 -91 56 -144.5t152 -53.5t152 53.5t56 144.5h65q0 -117 -74 -185t-199 -68t-199 68t-74 185z" />
<glyph unicode="&#x43a;" horiz-adv-x="917" d="M125 0v1040h77v-477h4l557 477h104l-583 -498l609 -542h-108l-579 516h-4v-516h-77z" />
<glyph unicode="&#x43b;" horiz-adv-x="1054" d="M22 1v71q27 -9 53 -9q42 0 72 27.5t49 82t30 117.5t18 151q22 232 41 599h645v-1040h-77v973h-498q-19 -334 -37 -537q-7 -81 -16 -141.5t-27 -120.5t-43 -98t-64.5 -61.5t-90.5 -23.5q-35 0 -55 10z" />
<glyph unicode="&#x43c;" horiz-adv-x="1337" d="M125 0v1040h90l453 -940h5l451 940h88v-1040h-77v896h-5l-431 -888h-61l-432 888h-4v-896h-77z" />
<glyph unicode="&#x43d;" horiz-adv-x="1054" d="M125 0v1040h77v-468h650v468h77v-1040h-77v505h-650v-505h-77z" />
<glyph unicode="&#x43e;" horiz-adv-x="1072" d="M73 520q0 244 127 389t336 145q210 0 337 -144.5t127 -389.5q0 -244 -127 -389t-337 -145q-209 0 -336 145t-127 389zM151 520q0 -214 104.5 -339t280.5 -125t281 125.5t105 338.5q0 214 -105 339t-281 125t-280.5 -125t-104.5 -339z" />
<glyph unicode="&#x43f;" horiz-adv-x="1044" d="M125 0v1040h795v-1040h-78v973h-640v-973h-77z" />
<glyph unicode="&#x440;" horiz-adv-x="1102" d="M125 -341v1381h73v-277h3q36 126 142 208.5t246 82.5q196 0 318.5 -148t122.5 -386t-122 -386t-318 -148q-140 0 -244.5 81t-140.5 206h-2v-614h-78zM202 520q0 -205 105.5 -334.5t272.5 -129.5q165 0 268 128.5t103 334.5q0 207 -103 336t-268 129q-167 0 -272.5 -129.5 t-105.5 -334.5z" />
<glyph unicode="&#x441;" horiz-adv-x="1010" d="M72 520q0 244 125 389t334 145q158 0 270 -86.5t142 -220.5h-77q-29 106 -119 171.5t-216 65.5q-174 0 -277.5 -126t-103.5 -338q0 -213 103.5 -338.5t278.5 -125.5q124 0 212 60.5t119 161.5h78q-32 -132 -142.5 -212t-267.5 -80q-210 0 -334.5 144.5t-124.5 389.5z" />
<glyph unicode="&#x442;" horiz-adv-x="910" d="M39 973v67h832v-67h-378v-973h-77v973h-377z" />
<glyph unicode="&#x443;" horiz-adv-x="923" d="M22 1040h84l354 -965h3l354 965h83l-410 -1090q-70 -186 -130 -247.5t-171 -61.5q-30 0 -53 7v69q24 -8 55 -8q69 0 112.5 43t83.5 149l33 85z" />
<glyph unicode="&#x444;" horiz-adv-x="1334" d="M72 517q0 243 152 386t406 150v346h76v-346q254 -7 405 -149.5t151 -385.5t-151.5 -386t-404.5 -149v-324h-76v324q-255 6 -406.5 148.5t-151.5 385.5zM150 517q0 -211 130.5 -335t349.5 -131v933q-219 -6 -349.5 -130.5t-130.5 -336.5zM706 51q218 6 348.5 130.5 t130.5 336.5q0 211 -130.5 335t-348.5 131v-933z" />
<glyph unicode="&#x445;" horiz-adv-x="888" d="M19 0l381 528l-379 512h92l331 -453h3l331 453h91l-380 -510l378 -530h-90l-332 467h-3l-333 -467h-90z" />
<glyph unicode="&#x446;" horiz-adv-x="1118" d="M125 0v1040h77v-973h638v973h76v-973h172v-342h-74v275h-889z" />
<glyph unicode="&#x447;" horiz-adv-x="976" d="M97 764v276h77v-275q0 -140 79.5 -222t226.5 -82q178 0 294 128v451h77v-1040h-77v497h-9q-112 -106 -288 -106q-184 0 -282 101t-98 272z" />
<glyph unicode="&#x448;" horiz-adv-x="1514" d="M125 0v1040h77v-973h516v973h77v-973h517v973h77v-1040h-1264z" />
<glyph unicode="&#x449;" horiz-adv-x="1590" d="M125 0v1040h77v-973h516v973h77v-973h517v973h77v-973h171v-342h-74v275h-1361z" />
<glyph unicode="&#x44a;" horiz-adv-x="1086" d="M39 973v67h357v-380h264q164 0 261 -89t97 -241q0 -151 -97 -240.5t-261 -89.5h-341v973h-280zM396 67h264q128 0 204.5 72t76.5 191q0 120 -76.5 191.5t-204.5 71.5h-264v-526z" />
<glyph unicode="&#x44b;" horiz-adv-x="1212" d="M125 0v1040h77v-380h264q163 0 260.5 -89t97.5 -241q0 -151 -97.5 -240.5t-260.5 -89.5h-341zM202 67h263q129 0 205.5 72t76.5 191q0 120 -77 191.5t-205 71.5h-263v-526zM1010 0v1040h77v-1040h-77z" />
<glyph unicode="&#x44c;" horiz-adv-x="892" d="M125 0v1040h77v-380h264q163 0 260.5 -89t97.5 -241q0 -151 -97.5 -240.5t-260.5 -89.5h-341zM202 67h263q129 0 205.5 72t76.5 191q0 120 -77 191.5t-205 71.5h-263v-526z" />
<glyph unicode="&#x44d;" horiz-adv-x="1012" d="M69 747q30 134 143.5 220.5t271.5 86.5q209 0 332 -144.5t123 -389.5q0 -246 -123 -390t-332 -144q-157 0 -269 80t-144 212h78q31 -101 120.5 -161.5t213.5 -60.5q172 0 273.5 121.5t103.5 328.5h-550v66h548q-11 190 -111 301t-263 111q-126 0 -217.5 -66t-120.5 -171 h-77z" />
<glyph unicode="&#x44e;" horiz-adv-x="1446" d="M125 0v1040h77v-468h265q14 224 135.5 353.5t316.5 129.5q208 0 331.5 -145t123.5 -393q0 -247 -123.5 -391.5t-331.5 -144.5q-205 0 -327.5 140.5t-126.5 383.5h-263v-505h-77zM544 517q0 -215 101.5 -340.5t273.5 -125.5q171 0 273.5 126t102.5 340q0 215 -102.5 341 t-273.5 126q-172 0 -273.5 -126t-101.5 -341z" />
<glyph unicode="&#x44f;" horiz-adv-x="924" d="M55 0l321 428q-135 15 -213 94.5t-78 203.5q0 144 97 229t262 85h355v-1040h-77v418h-263l-312 -418h-92zM162 727q0 -110 77 -175.5t205 -65.5h278v487h-278q-129 0 -205.5 -66.5t-76.5 -179.5z" />
<glyph unicode="&#x450;" horiz-adv-x="1046" d="M73 519q0 242 125 388.5t331 146.5q202 0 324 -138t122 -365v-44h-823v-4q0 -209 105 -328.5t281 -119.5q138 0 230 65.5t116 170.5h78q-26 -135 -140.5 -220t-284.5 -85q-213 0 -338.5 142t-125.5 391zM153 572h742q-1 185 -102 299t-265 114q-161 0 -264 -113.5 t-111 -299.5zM257 1556h93l230 -303h-74z" />
<glyph unicode="&#x451;" horiz-adv-x="1046" d="M73 519q0 242 125 388.5t331 146.5q202 0 324 -138t122 -365v-44h-823v-4q0 -209 105 -328.5t281 -119.5q138 0 230 65.5t116 170.5h78q-26 -135 -140.5 -220t-284.5 -85q-213 0 -338.5 142t-125.5 391zM153 572h742q-1 185 -102 299t-265 114q-161 0 -264 -113.5 t-111 -299.5zM309 1323q0 27 20 46.5t48 19.5q27 0 47 -19.5t20 -46.5q0 -28 -20 -47.5t-47 -19.5q-28 0 -48 19.5t-20 47.5zM614 1323q0 27 20 46.5t47 19.5q28 0 48 -19.5t20 -46.5q0 -28 -20 -47.5t-48 -19.5q-27 0 -47 19.5t-20 47.5z" />
<glyph unicode="&#x452;" horiz-adv-x="1088" d="M23 1234v60h127v149h78v-149h273v-60h-273v-422h2q37 111 133 176.5t227 65.5q171 0 275 -105t104 -279v-758q0 -140 -66 -201.5t-204 -61.5h-30v69h26q104 0 150.5 45.5t46.5 148.5v749q0 149 -86.5 236t-232.5 87q-154 0 -249.5 -102t-95.5 -265v-617h-78v1234h-127z " />
<glyph unicode="&#x453;" horiz-adv-x="831" d="M125 0v1040h652v-67h-575v-973h-77zM383 1253l230 303h93l-249 -303h-74z" />
<glyph unicode="&#x454;" horiz-adv-x="1012" d="M72 520q0 244 125 389t334 145q158 0 270 -86.5t142 -220.5h-77q-29 106 -119 171.5t-216 65.5q-163 0 -264.5 -111t-113.5 -301h549v-66h-551q3 -207 106 -328.5t275 -121.5q124 0 212 60t119 162h78q-32 -132 -142.5 -212t-267.5 -80q-210 0 -334.5 144.5t-124.5 389.5 z" />
<glyph unicode="&#x455;" horiz-adv-x="912" d="M67 294h77q11 -104 99 -172.5t218 -68.5q132 0 219.5 60.5t87.5 156.5q0 81 -54.5 129.5t-180.5 78.5l-168 41q-134 32 -199.5 93.5t-65.5 160.5q0 123 103.5 201.5t255.5 78.5q157 0 257.5 -84.5t112.5 -227.5h-76q-12 111 -90 178.5t-206 67.5q-117 0 -198.5 -59.5 t-81.5 -150.5q0 -76 52 -120t165 -72l162 -38q155 -38 222.5 -101t67.5 -170q0 -128 -108.5 -209t-277.5 -81q-165 0 -274.5 88.5t-118.5 219.5z" />
<glyph unicode="&#x456;" horiz-adv-x="332" d="M105 1357q0 25 18 42.5t44 17.5q25 0 43 -17.5t18 -42.5t-18 -43t-43 -18q-26 0 -44 18t-18 43zM128 0v1040h77v-1040h-77z" />
<glyph unicode="&#x457;" horiz-adv-x="327" d="M-17 1355q0 25 18.5 42.5t44.5 17.5q25 0 43 -17.5t18 -42.5t-18 -43t-43 -18q-26 0 -44.5 18t-18.5 43zM125 0v1040h77v-1040h-77zM233 1355q0 25 17.5 42.5t43.5 17.5t44 -17.5t18 -42.5t-18 -43t-44 -18t-43.5 18t-17.5 43z" />
<glyph unicode="&#x458;" horiz-adv-x="336" d="M-95 -283h27q103 0 149.5 45.5t46.5 149.5v1128h77v-1125q0 -140 -66.5 -203t-203.5 -63h-30v68zM105 1357q0 25 18 42.5t44 17.5q25 0 43 -17.5t18 -42.5t-18 -43t-43 -18q-26 0 -44 18t-18 43z" />
<glyph unicode="&#x459;" horiz-adv-x="1621" d="M22 1v71q27 -9 53 -9q42 0 72 27.5t49 82t30 117.5t18 151q22 232 41 599h646v-380h265q164 0 261 -89t97 -241q0 -151 -97 -240.5t-261 -89.5h-342v973h-499q-19 -334 -37 -537q-7 -81 -16 -141.5t-27 -120.5t-43 -98t-64.5 -61.5t-90.5 -23.5q-35 0 -55 10zM931 67h264 q129 0 205.5 72t76.5 191q0 120 -77 191.5t-205 71.5h-264v-526z" />
<glyph unicode="&#x45a;" horiz-adv-x="1600" d="M125 0v1040h77v-442h631v442h77v-441h267q163 0 259 -80.5t96 -218.5t-96 -219t-259 -81h-344v531h-631v-531h-77zM910 67h266q127 0 203 63.5t76 169.5q0 107 -76 170t-203 63h-266v-466z" />
<glyph unicode="&#x45b;" horiz-adv-x="1088" d="M23 1234v60h128v149h77v-149h274v-60h-274v-422h3q36 111 132.5 176.5t226.5 65.5q171 0 275.5 -105t104.5 -279v-670h-78v661q0 149 -86.5 236t-232.5 87q-153 0 -249 -102t-96 -265v-617h-77v1234h-128z" />
<glyph unicode="&#x45c;" horiz-adv-x="917" d="M125 0v1040h77v-477h4l557 477h104l-583 -498l609 -542h-108l-579 516h-4v-516h-77zM407 1253l230 303h93l-249 -303h-74z" />
<glyph unicode="&#x45d;" horiz-adv-x="1065" d="M125 0v1040h77v-919h4l657 919h77v-1040h-77v918h-4l-657 -918h-77zM284 1556h93l230 -303h-74z" />
<glyph unicode="&#x45e;" horiz-adv-x="923" d="M22 1040h84l354 -965h3l354 965h83l-410 -1090q-70 -186 -130 -247.5t-171 -61.5q-30 0 -53 7v69q24 -8 55 -8q69 0 112.5 43t83.5 149l33 85zM205 1503h65q0 -91 56 -144.5t152 -53.5t152 53.5t56 144.5h65q0 -117 -74 -185t-199 -68t-199 68t-74 185z" />
<glyph unicode="&#x45f;" horiz-adv-x="1044" d="M125 0v1040h77v-973h641v973h77v-1040h-361v-275h-74v275h-360z" />
<glyph unicode="&#x462;" horiz-adv-x="1340" d="M15 1208v70h330v228h79v-228h466v-70h-466v-353h387q210 0 337 -116.5t127 -310.5t-126.5 -311t-336.5 -117h-467v1208h-330zM424 73h375q183 0 289.5 95.5t106.5 259.5q0 163 -107 259t-289 96h-375v-710z" />
<glyph unicode="&#x463;" horiz-adv-x="1048" d="M17 973v67h262v403h77v-403h458v-67h-458v-313h267q164 0 261 -89t97 -241q0 -151 -97 -240.5t-261 -89.5h-344v973h-262zM356 67h266q129 0 205.5 72t76.5 191q0 120 -77 191.5t-205 71.5h-266v-526z" />
<glyph unicode="&#x472;" horiz-adv-x="1438" d="M77 722q0 344 173 544.5t470 200.5t469 -200.5t172 -544.5q0 -345 -172 -545.5t-469 -200.5q-299 0 -471 200t-172 546zM158 730q111 111 277 111q73 0 153 -24.5t139.5 -54t136 -54t142.5 -24.5q83 0 155.5 32t115.5 83q-20 275 -169 434.5t-388 159.5 q-255 0 -407.5 -180t-154.5 -483zM160 657q17 -279 167 -443t393 -164q256 0 408 183t152 489v2q-51 -51 -123 -80t-153 -29q-77 0 -158.5 25t-140 54t-133.5 53.5t-140 24.5q-160 0 -272 -115z" />
<glyph unicode="&#x473;" horiz-adv-x="1073" d="M72 520q0 247 125.5 391.5t338.5 144.5t338.5 -144.5t125.5 -391.5t-125.5 -391.5t-338.5 -144.5t-338.5 144.5t-125.5 391.5zM151 527q72 77 198 77q47 0 101.5 -15t95.5 -33t93 -33t96 -15q61 0 111 19.5t74 50.5q-14 189 -117 298.5t-267 109.5q-175 0 -279 -124 t-106 -335zM153 466q14 -191 116 -301.5t267 -110.5q176 0 280 125t106 336q-70 -73 -197 -73q-61 0 -130 24t-135 48t-121 24q-60 0 -111 -20t-75 -52z" />
<glyph unicode="&#x474;" horiz-adv-x="1427" d="M31 1443h85l502 -1335h7l419 1113q31 84 58 128.5t60 67.5q44 33 119 33q73 0 134 -35l-25 -69q-57 25 -106 25q-53 0 -88 -31q-34 -30 -77 -141l-458 -1199h-80z" />
<glyph unicode="&#x475;" horiz-adv-x="1079" d="M14 1040h83l352 -949h7l277 746q53 145 111 186q44 33 108 33q62 0 123 -33l-25 -67q-51 24 -94 24q-44 0 -77 -30q-33 -32 -72 -133l-309 -817h-92z" />
<glyph unicode="&#x48a;" horiz-adv-x="1418" d="M138 0v1443h78v-1312h8l921 1312h79v-1370h179v-21l-104 -337h-76l89 285h-88h-79v73v1238h-7l-922 -1311h-78zM411 1789h64q0 -84 57 -133t149 -49t149 49t57 133h64q0 -109 -74.5 -172.5t-195.5 -63.5t-195.5 63.5t-74.5 172.5z" />
<glyph unicode="&#x48b;" horiz-adv-x="1121" d="M125 0v1040h77v-919h4l657 919h77v-973h172v-20l-97 -322h-76l85 275h-84h-77v67v851h-4l-657 -918h-77zM291 1503h65q0 -91 56 -144.5t152 -53.5t152 53.5t56 144.5h65q0 -117 -74 -185t-199 -68t-199 68t-74 185z" />
<glyph unicode="&#x48c;" horiz-adv-x="1340" d="M15 1208v70h330v228h79v-228h466v-70h-466v-353h387q210 0 337 -116.5t127 -310.5t-126.5 -311t-336.5 -117h-467v1208h-330zM424 73h375q183 0 289.5 95.5t106.5 259.5q0 163 -107 259t-289 96h-375v-710z" />
<glyph unicode="&#x48d;" horiz-adv-x="1048" d="M17 973v67h262v403h77v-403h458v-67h-458v-313h267q164 0 261 -89t97 -241q0 -151 -97 -240.5t-261 -89.5h-344v973h-262zM356 67h266q129 0 205.5 72t76.5 191q0 120 -77 191.5t-205 71.5h-266v-526z" />
<glyph unicode="&#x48e;" horiz-adv-x="1124" d="M135 0v1443h461q211 0 337 -117.5t126 -314.5q0 -133 -62.5 -232t-175.5 -150l176 -277l-66 -45l-183 296q-76 -21 -167 -21h-367v-582h-79zM214 654h369q66 0 127 14l-167 268l57 38l180 -283q95 41 147 123.5t52 196.5q0 168 -106 264t-290 96h-369v-717z" />
<glyph unicode="&#x48f;" horiz-adv-x="1101" d="M125 -341v1381h73v-278h5q37 128 143 211t245 83q196 0 317 -148t121 -388q0 -157 -55 -278t-152 -188l132 -206l-65 -45l-133 214q-79 -33 -166 -33q-140 0 -244.5 81t-137.5 205h-6v-611h-77zM201 520q0 -208 104.5 -337.5t272.5 -129.5q74 0 141 28l-179 287l56 37 l184 -290q81 59 126 163t45 241q0 210 -102.5 338.5t-269.5 128.5q-169 0 -273.5 -129t-104.5 -337z" />
<glyph unicode="&#x490;" horiz-adv-x="1024" d="M138 0v1443h749v258h75v-331h-745v-1370h-79z" />
<glyph unicode="&#x491;" horiz-adv-x="831" d="M125 0v1040h578v249h74v-316h-575v-973h-77z" />
<glyph unicode="&#x492;" horiz-adv-x="1073" d="M64 698v66h122v679h824v-73h-745v-606h638v-66h-638v-698h-79v698h-122z" />
<glyph unicode="&#x493;" horiz-adv-x="867" d="M46 502v67h115v471h652v-67h-575v-404h420v-67h-420v-502h-77v502h-115z" />
<glyph unicode="&#x494;" horiz-adv-x="1157" d="M138 0v1443h733v-73h-654v-654h10q58 61 156 106t225 45q210 0 330.5 -122t120.5 -323q0 -191 -106.5 -312.5t-285.5 -121.5q-78 0 -108 13v72q23 -10 106 -10q139 0 227 98t88 260q0 170 -101.5 272t-273.5 102q-73 0 -141 -19t-116 -49t-80.5 -59.5t-50.5 -56.5v-611 h-79z" />
<glyph unicode="&#x495;" horiz-adv-x="961" d="M125 0v1040h611v-67h-534v-521h9q53 59 131 95t174 36q173 0 277.5 -114.5t104.5 -301.5q0 -192 -107 -309.5t-282 -117.5q-73 0 -107 12v68q30 -9 104 -9q140 0 226.5 96.5t86.5 258.5q0 154 -85 250t-222 96q-97 0 -179.5 -44.5t-130.5 -114.5v-353h-77z" />
<glyph unicode="&#x496;" horiz-adv-x="1881" d="M19 0l756 745l-702 698h107l676 -679h5v679h80v-679h5l677 679h104l-700 -696l683 -674h166v-358h-75v285h-17h-111l-727 718h-5v-718h-80v718h-5l-728 -718h-109z" />
<glyph unicode="&#x497;" horiz-adv-x="1417" d="M25 0l545 541l-522 499h103l495 -477h3v477h77v-477h4l495 477h101l-519 -496l479 -477h126v-342h-75v275h-91l-516 516h-4v-516h-77v516h-3l-517 -516h-104z" />
<glyph unicode="&#x498;" horiz-adv-x="1121" d="M65 361h78q10 -131 127.5 -222t288.5 -91q188 0 302.5 97.5t114.5 246.5q0 154 -110.5 237t-325.5 83h-174v72h172q178 0 282.5 85.5t104.5 223.5q0 130 -99.5 216t-263.5 86q-154 0 -256 -83t-120 -215h-77q18 165 141 268t314 103q195 0 318 -106t123 -265 q0 -130 -81.5 -221.5t-224.5 -119.5v-5q169 -13 263.5 -110t94.5 -251q0 -168 -125 -284t-329 -129v-263h-76v263q-195 9 -323.5 118t-138.5 266z" />
<glyph unicode="&#x499;" horiz-adv-x="909" d="M62 265h78q22 -96 105.5 -156.5t216.5 -60.5q135 0 215.5 62.5t80.5 169.5q0 112 -80.5 167.5t-225.5 55.5h-167v66h167q127 0 198.5 57t71.5 154q0 94 -69 150.5t-190 56.5q-126 0 -205.5 -62t-101.5 -162h-76q24 129 122 210.5t260 81.5q157 0 247 -73.5t90 -198.5 q0 -91 -58.5 -156.5t-149.5 -83.5v-4q107 -15 175.5 -80.5t68.5 -173.5q0 -137 -93.5 -216.5t-250.5 -86.5v-257h-74v258q-148 10 -241 86t-114 196z" />
<glyph unicode="&#x49a;" horiz-adv-x="1234" d="M138 0v1443h79v-679h5l753 679h107l-778 -697l753 -673h172v-358h-76v285h-14h-114l-803 718h-5v-718h-79z" />
<glyph unicode="&#x49b;" horiz-adv-x="958" d="M125 0v1040h77v-477h4l557 477h104l-583 -498l533 -474h137v-343h-76v275h-93l-579 516h-4v-516h-77z" />
<glyph unicode="&#x49c;" horiz-adv-x="1190" d="M138 0v1443h79v-671h152v342h69v-342h92l474 671h95l-493 -698l564 -745h-103l-537 708h-92v-361h-69v361h-152v-708h-79z" />
<glyph unicode="&#x49d;" horiz-adv-x="967" d="M125 0v1040h77v-483h136v316h66v-316h77l353 483h92l-378 -511l405 -529h-98l-374 493h-77v-312h-66v312h-136v-493h-77z" />
<glyph unicode="&#x49e;" horiz-adv-x="1230" d="M15 1222v70h183v151h79v-151h286v-70h-286v-450h15l749 671h107l-786 -698l841 -745h-112l-799 708h-15v-708h-79v1222h-183z" />
<glyph unicode="&#x49f;" horiz-adv-x="943" d="M23 1236v61h128v146h77v-146h279v-61h-279v-729h1l585 533h101l-487 -448l492 -592h-95l-456 544l-141 -126v-418h-77v1236h-128z" />
<glyph unicode="&#x4a0;" horiz-adv-x="1758" d="M31 1370v73h699h79v-73v-606h5l753 679h107l-778 -697l835 -746h-114l-803 718h-5v-718h-79v1370h-699z" />
<glyph unicode="&#x4a1;" horiz-adv-x="1395" d="M47 973v67h556h77v-67v-410h4l557 477h104l-583 -498l609 -542h-108l-579 516h-4v-516h-77v973h-556z" />
<glyph unicode="&#x4a2;" horiz-adv-x="1420" d="M138 0v1443h79v-666h913v666h79v-1370h187v-358h-75v285h-112h-79v73v632h-913v-705h-79z" />
<glyph unicode="&#x4a3;" horiz-adv-x="1130" d="M125 0v1040h77v-468h650v468h77v-973h171v-342h-75v275h-96h-77v67v438h-650v-505h-77z" />
<glyph unicode="&#x4a4;" horiz-adv-x="2016" d="M138 0v1443h79v-666h913v593v73h79h745v-73h-745v-1370h-79v705h-913v-705h-79z" />
<glyph unicode="&#x4a5;" horiz-adv-x="1550" d="M125 0v1040h77v-468h650v468h12h65h568v-67h-568v-973h-77v505h-650v-505h-77z" />
<glyph unicode="&#x4a6;" horiz-adv-x="2062" d="M138 0v1443h984v-727h10q58 61 155.5 106t225.5 45q210 0 330.5 -122t120.5 -323q0 -191 -106.5 -312.5t-285.5 -121.5q-82 0 -108 13v72q23 -10 106 -10q139 0 226.5 98t87.5 260q0 170 -101 272t-273 102q-138 0 -242 -60t-146 -124v-611h-79v1370h-826v-1370h-79z" />
<glyph unicode="&#x4a7;" horiz-adv-x="1679" d="M125 0v1040h795v-588h8q55 64 134 101t172 37q175 0 278 -115t103 -308q0 -192 -107 -309.5t-282 -117.5q-71 0 -107 12v67q34 -8 105 -8q140 0 226.5 97t86.5 258q0 159 -84.5 256t-223.5 97q-93 0 -177.5 -46t-131.5 -120v-353h-78v973h-640v-973h-77z" />
<glyph unicode="&#x4a8;" horiz-adv-x="1889" d="M70 732q0 192 77.5 351.5t219.5 261t325 125.5v-75q-244 -40 -392 -221.5t-148 -437.5q0 -310 193.5 -498t509.5 -188q161 0 306 54q-165 109 -263.5 281.5t-98.5 383.5q0 236 127.5 384t329.5 148q203 0 330 -142t127 -370q0 -213 -110.5 -400t-290.5 -290 q118 -53 267 -53q150 0 267 70l29 -65q-134 -76 -298 -76q-193 0 -342 83q-173 -82 -380 -82q-358 0 -571.5 207t-213.5 549zM879 771q0 -195 97.5 -365.5t261.5 -268.5q178 93 286.5 271.5t108.5 380.5q0 190 -106.5 314t-270.5 124q-166 0 -271.5 -129t-105.5 -327z" />
<glyph unicode="&#x4a9;" horiz-adv-x="1538" d="M72 544q0 215 124.5 364.5t325.5 174.5v-74q-165 -25 -268 -153t-103 -308q0 -228 144.5 -363t386.5 -135q133 0 246 46q-132 85 -210 215t-78 283q0 173 105 284.5t268 111.5q165 0 269 -110.5t104 -285.5q0 -161 -79.5 -290t-223.5 -210q107 -48 217 -48q105 0 193 31 l21 -61q-91 -36 -215 -36q-160 0 -296 72q-148 -71 -327 -71q-279 0 -441.5 152.5t-162.5 410.5zM720 594q0 -139 77 -262.5t210 -198.5q139 69 219 191t80 270q0 142 -82 234t-211 92q-127 0 -210 -93t-83 -233z" />
<glyph unicode="&#x4aa;" horiz-adv-x="1346" d="M77 730q0 337 172 535.5t463 198.5q220 0 382 -138.5t185 -344.5h-79q-23 174 -162.5 291.5t-325.5 117.5q-254 0 -404 -178t-150 -482q0 -310 150.5 -493.5t403.5 -183.5q192 0 328.5 105.5t159.5 277.5h79q-24 -199 -172.5 -324t-368.5 -133l-50 -120q99 0 153 -39.5 t54 -112.5q0 -75 -60.5 -122.5t-156.5 -47.5q-72 -2 -128 16v56q43 -17 122 -17q68 0 113.5 32t45.5 81q0 50 -41 76t-119 26h-49v43l53 130q-275 14 -436.5 216t-161.5 534z" />
<glyph unicode="&#x4ab;" horiz-adv-x="1014" d="M73 520q0 244 124.5 389t333.5 145q165 0 279 -93t138 -235h-77q-23 114 -115 186t-225 72q-174 0 -277 -126t-103 -338q0 -213 103 -338.5t278 -125.5q132 0 223.5 68t114.5 181h77q-23 -136 -128 -223.5t-259 -94.5l-53 -128q99 0 153 -39.5t54 -112.5 q0 -75 -60.5 -122.5t-156.5 -47.5q-72 -2 -128 16v56q43 -17 122 -17q68 0 113.5 32t45.5 81q0 50 -41 76t-119 26h-49v43l56 137q-196 13 -310 155.5t-114 377.5z" />
<glyph unicode="&#x4ac;" horiz-adv-x="1152" d="M31 1370v73h1090v-73h-505v-1297h190v-358h-76v285h-114h-77h-2v1370h-506z" />
<glyph unicode="&#x4ad;" horiz-adv-x="910" d="M39 973v67h832v-67h-378v-906h172v-342h-76v275h-96h-77v67v906h-377z" />
<glyph unicode="&#x4ae;" horiz-adv-x="1172" d="M22 1443h93l469 -733h5l469 733h92l-524 -814v-629h-79v629z" />
<glyph unicode="&#x4af;" horiz-adv-x="903" d="M14 1040h83l351 -945h7l351 945h84l-401 -1054v-327h-75v327z" />
<glyph unicode="&#x4b0;" horiz-adv-x="1172" d="M22 1443h93l469 -733h5l469 733h92l-498 -773h361v-68h-387v-602h-79v602h-387v68h361z" />
<glyph unicode="&#x4b1;" horiz-adv-x="903" d="M14 1040h83l351 -945h7l351 945h84l-396 -1041h251v-61h-256v-279h-75v279h-253v61h248z" />
<glyph unicode="&#x4b2;" horiz-adv-x="1305" d="M52 0l516 722v2l-514 719h95l469 -658h2l471 658h92l-518 -721v-2l463 -647h172v-358h-75v285h-45h-95l-468 656h-2l-471 -656h-92z" />
<glyph unicode="&#x4b3;" horiz-adv-x="957" d="M19 0l381 528l-379 512h92l331 -453h3l331 453h91l-380 -510l330 -463h133v-342h-76v275h-9h-90l-332 467h-3l-333 -467h-90z" />
<glyph unicode="&#x4b4;" horiz-adv-x="1773" d="M31 1370v73h480h79h479v-73h-479v-1297h893v1370h79v-1370h187v-358h-75v285h-1163v1370h-480z" />
<glyph unicode="&#x4b5;" horiz-adv-x="1341" d="M39 973v67h309h77h398v-67h-398v-906h638v973h76v-973h172v-342h-74v275h-889v973h-309z" />
<glyph unicode="&#x4b6;" horiz-adv-x="1299" d="M109 1054v389h79v-384q0 -191 115.5 -300t307.5 -109q76 0 146 17t119.5 43.5t81.5 49.5t51 44v639h79v-1370h187v-358h-75v285h-112h-79v73v640h-6q-59 -55 -160.5 -96t-231.5 -41q-232 0 -367 131t-135 347z" />
<glyph unicode="&#x4b7;" horiz-adv-x="1051" d="M97 764v276h77v-275q0 -140 79.5 -222t226.5 -82q178 0 294 128v451h77v-973h170v-342h-76v275h-94h-77v67v430h-9q-112 -106 -288 -106q-184 0 -282 101t-98 272z" />
<glyph unicode="&#x4b8;" horiz-adv-x="1226" d="M109 1054v389h79v-384q0 -181 104.5 -289t281.5 -119v387h69v-387q130 7 226 55.5t140 97.5v639h79v-1443h-79v713h-4q-54 -51 -148 -91t-214 -45v-327h-69v327q-217 11 -341 140.5t-124 336.5z" />
<glyph unicode="&#x4b9;" horiz-adv-x="976" d="M97 764v276h77v-275q0 -131 70 -212t200 -91v337h65v-337q159 9 266 127v451h76v-1040h-76v497h-10q-99 -95 -256 -105v-239h-65v239q-168 10 -257.5 109.5t-89.5 262.5z" />
<glyph unicode="&#x4ba;" horiz-adv-x="1242" d="M138 0v1443h79v-697h6q63 59 166.5 105t241.5 46q221 0 353.5 -132t132.5 -346v-419h-79v414q0 190 -112.5 299.5t-294.5 109.5q-81 0 -155 -19t-125.5 -49t-82 -54t-51.5 -47v-654h-79z" />
<glyph unicode="&#x4bb;" horiz-adv-x="1063" d="M125 0v1443h77v-631h3q36 111 132.5 176.5t226.5 65.5q171 0 275.5 -105t104.5 -279v-670h-77v661q0 149 -87 236t-233 87q-153 0 -249 -102t-96 -265v-617h-77z" />
<glyph unicode="&#x4bc;" horiz-adv-x="1616" d="M34 991q0 46 11 91.5t22 67.5l11 22h73q-42 -82 -42 -176q0 -87 53 -134t159 -47h4q26 299 192 475.5t425 176.5q274 0 439 -184t165 -490v-50h-1142v-45q0 -293 156 -470t415 -177q160 0 283 75t178 205h80q-52 -162 -199 -258.5t-343 -96.5q-301 0 -477 199t-176 539 v29h-3q-138 0 -211 66t-73 182zM407 815h1054q-4 263 -145.5 420t-374.5 157q-222 0 -367 -155.5t-167 -421.5z" />
<glyph unicode="&#x4bd;" horiz-adv-x="1232" d="M35 733q0 42 11 84t19.5 61t11.5 22h69l-2 -4q-2 -5 -5.5 -13.5t-8 -19.5t-9 -25.5t-8 -30t-5.5 -34t-2 -36.5q0 -144 155 -162q15 219 137.5 349t316.5 130q202 0 324 -138t122 -365v-44h-820v-3h-3v-1q0 -209 105 -328.5t281 -119.5q138 0 230 65.5t116 170.5h78 q-26 -135 -140.5 -220t-284.5 -85q-210 0 -335 138.5t-129 381.5q-110 10 -167 69.5t-57 157.5zM339 572h2h740q-1 185 -102 299t-265 114q-161 0 -264 -113.5t-111 -299.5z" />
<glyph unicode="&#x4be;" horiz-adv-x="1616" d="M34 991q0 46 11 91.5t22 67.5l11 22h73q-42 -82 -42 -176q0 -87 53 -134t159 -47h4q26 299 192 475.5t425 176.5q274 0 439 -184t165 -490v-50h-1142v-45q0 -293 156 -470t415 -177q160 0 283 75t178 205h80q-49 -155 -188 -250.5t-325 -103.5v-263h-75v263 q-281 16 -444 213.5t-163 523.5v29h-3q-138 0 -211 66t-73 182zM407 815h1054q-4 263 -145.5 420t-374.5 157q-222 0 -367 -155.5t-167 -421.5zM729 1630q0 27 20 46.5t48 19.5q27 0 47 -19.5t20 -46.5q0 -28 -20 -47.5t-47 -19.5q-28 0 -48 19.5t-20 47.5zM1034 1630 q0 27 20 46.5t47 19.5q28 0 48 -19.5t20 -46.5q0 -28 -20 -47.5t-48 -19.5q-27 0 -47 19.5t-20 47.5z" />
<glyph unicode="&#x4bf;" horiz-adv-x="1232" d="M35 733q0 42 11 84t19.5 61t11.5 22h69l-2 -4q-2 -5 -5.5 -13.5t-8 -19.5t-9 -25.5t-8 -30t-5.5 -34t-2 -36.5q0 -144 155 -162q15 219 137.5 349t316.5 130q202 0 324 -138t122 -365v-44h-820v-3h-3v-1q0 -209 105 -328.5t281 -119.5q138 0 230 65.5t116 170.5h78 q-24 -126 -127 -209.5t-256 -94.5v-262h-75v262q-197 11 -312 148t-119 371q-110 10 -167 69.5t-57 157.5zM339 572h2h740q-1 185 -102 299t-265 114q-161 0 -264 -113.5t-111 -299.5zM488 1321q0 27 20 46.5t48 19.5q27 0 47 -19.5t20 -46.5q0 -28 -20 -47.5t-47 -19.5 q-28 0 -48 19.5t-20 47.5zM793 1321q0 27 20 46.5t47 19.5q28 0 48 -19.5t20 -46.5q0 -28 -20 -47.5t-48 -19.5q-27 0 -47 19.5t-20 47.5z" />
<glyph unicode="&#x4c0;" horiz-adv-x="355" d="M138 0v1443h79v-1443h-79z" />
<glyph unicode="&#x4c1;" horiz-adv-x="1804" d="M19 0l756 745l-702 698h107l676 -679h5v679h80v-679h5l677 679h104l-700 -696l757 -747h-111l-727 718h-5v-718h-80v718h-5l-728 -718h-109zM630 1789h61q0 -77 58 -128.5t150 -51.5t150 51.5t58 128.5h61q0 -107 -75.5 -171.5t-193.5 -64.5t-193.5 64.5t-75.5 171.5z " />
<glyph unicode="&#x4c2;" horiz-adv-x="1379" d="M25 0l545 541l-522 499h103l495 -477h3v477h77v-477h4l495 477h101l-519 -496l546 -544h-107l-516 516h-4v-516h-77v516h-3l-517 -516h-104zM430 1503h65q0 -91 56 -144.5t152 -53.5t152 53.5t56 144.5h65q0 -117 -74 -185t-199 -68t-199 68t-74 185z" />
<glyph unicode="&#x4c3;" horiz-adv-x="1157" d="M138 0v1443h79v-671h30l727 671h105l-739 -677q318 -19 505 -190.5t187 -442.5q0 -228 -130.5 -372.5t-336.5 -144.5q-36 0 -57 4v72q25 -4 52 -4q172 0 282 123.5t110 318.5q0 261 -190.5 417t-510.5 156h-34v-703h-79z" />
<glyph unicode="&#x4c4;" horiz-adv-x="916" d="M125 0v1040h77v-483h33l528 483h99l-536 -487q248 -11 388 -130t140 -306q0 -181 -123.5 -299t-311.5 -118q-36 0 -61 4v70q20 -5 62 -5q153 0 254.5 98.5t101.5 248.5q0 171 -135.5 271.5t-374.5 100.5h-64v-488h-77z" />
<glyph unicode="&#x4c5;" horiz-adv-x="1345" d="M25 0v73q24 -8 54 -8q103 0 153.5 107t61.5 305l58 966h798v-1370h179v-21l-104 -337h-75l88 285h-88h-79v73v1297h-644l-55 -900q-7 -110 -24.5 -193.5t-50 -150t-86.5 -101t-128 -34.5q-13 0 -58 9z" />
<glyph unicode="&#x4c6;" horiz-adv-x="1111" d="M22 1v71q27 -9 53 -9q42 0 72 27.5t49 82t30 117.5t18 151q22 232 41 599h645v-973h171v-20l-96 -322h-76l85 275h-84h-77v67v906h-498q-19 -334 -37 -537q-7 -81 -16 -141.5t-27 -120.5t-43 -98t-64.5 -61.5t-90.5 -23.5q-35 0 -55 10z" />
<glyph unicode="&#x4c7;" horiz-adv-x="1347" d="M138 0v1443h79v-666h913v666h79v-1146v-297v-88q0 -144 -67 -210t-201 -66h-18v70h15q100 0 146 48t46 154v92v297v408h-913v-705h-79z" />
<glyph unicode="&#x4c8;" horiz-adv-x="1054" d="M125 0v1040h77v-468h650v468h77v-752v-288v-84q0 -141 -66.5 -203.5t-203.5 -62.5h-29v68h26q104 0 150 45.5t46 148.5v88v288v217h-650v-505h-77z" />
<glyph unicode="&#x4c9;" horiz-adv-x="1403" d="M138 0v1443h79v-666h913v666h79v-1370h179v-21l-104 -337h-76l89 285h-88h-79v73v632h-913v-705h-79z" />
<glyph unicode="&#x4ca;" horiz-adv-x="1110" d="M125 0v1040h77v-468h650v468h77v-973h171v-20l-96 -322h-75l83 275h-83h-77v67v438h-650v-505h-77z" />
<glyph unicode="&#x4cb;" horiz-adv-x="1226" d="M109 1054v389h79v-384q0 -191 115.5 -300t307.5 -109q76 0 146 17t119.5 43.5t81.5 49.5t51 44v639h79v-1370v-73h-79h-112v-285h-75v358h187v640h-6q-59 -55 -160.5 -96t-231.5 -41q-232 0 -367 131t-135 347z" />
<glyph unicode="&#x4cc;" horiz-adv-x="976" d="M97 764v276h77v-274q0 -140 79 -222.5t224 -82.5q175 0 297 136v443h77v-973v-67h-77h-96v-275h-76v342h172v436h-9q-118 -112 -293 -112q-180 0 -277.5 101t-97.5 272z" />
<glyph unicode="&#x4cd;" horiz-adv-x="1684" d="M138 0v1443h88l583 -1340h6l581 1340h90v-1370h182v-21l-103 -337h-76l89 285h-92h-76v73v1206h-4l-556 -1276h-76l-556 1276h-4v-1279h-76z" />
<glyph unicode="&#x4ce;" horiz-adv-x="1393" d="M125 0v1040h90l453 -940h5l451 940h88v-973h172v-20l-98 -322h-74l83 275h-83h-77v67v829h-5l-431 -888h-61l-432 888h-4v-896h-77z" />
<glyph unicode="&#x4cf;" horiz-adv-x="326" d="M125 0v1443h77v-1443h-77z" />
<glyph unicode="&#x4d0;" horiz-adv-x="1241" d="M31 0l550 1443h80l549 -1443h-85l-180 481h-649l-179 -481h-86zM322 552h598l-297 788h-5zM352 1789h64q0 -84 57 -133t149 -49t149 49t57 133h64q0 -109 -74.5 -172.5t-195.5 -63.5t-195.5 63.5t-74.5 172.5z" />
<glyph unicode="&#x4d1;" horiz-adv-x="1016" d="M93 281q0 133 94.5 208t277.5 89l355 26v92q0 136 -78 212t-217 76q-132 0 -215.5 -64.5t-102.5 -181.5h-74q13 144 120.5 230t271.5 86q172 0 272.5 -95t100.5 -257v-702h-75v223h-2q-39 -105 -145 -171.5t-238 -66.5q-153 0 -249 82.5t-96 213.5zM171 281 q0 -99 78.5 -163.5t199.5 -64.5q154 0 262.5 97.5t108.5 235.5v154l-345 -26q-149 -11 -226.5 -70.5t-77.5 -162.5zM248 1503h65q0 -91 56 -144.5t152 -53.5t152 53.5t56 144.5h65q0 -117 -74 -185t-199 -68t-199 68t-74 185z" />
<glyph unicode="&#x4d2;" horiz-adv-x="1241" d="M31 0l550 1443h80l549 -1443h-85l-180 481h-649l-179 -481h-86zM322 552h598l-297 788h-5zM401 1630q0 27 20 46.5t48 19.5q27 0 47 -19.5t20 -46.5q0 -28 -20 -47.5t-47 -19.5q-28 0 -48 19.5t-20 47.5zM706 1630q0 27 20 46.5t47 19.5q28 0 48 -19.5t20 -46.5 q0 -28 -20 -47.5t-48 -19.5q-27 0 -47 19.5t-20 47.5z" />
<glyph unicode="&#x4d3;" horiz-adv-x="1016" d="M93 281q0 133 94.5 208t277.5 89l355 26v92q0 136 -78 212t-217 76q-132 0 -215.5 -64.5t-102.5 -181.5h-74q13 144 120.5 230t271.5 86q172 0 272.5 -95t100.5 -257v-702h-75v223h-2q-39 -105 -145 -171.5t-238 -66.5q-153 0 -249 82.5t-96 213.5zM171 281 q0 -99 78.5 -163.5t199.5 -64.5q154 0 262.5 97.5t108.5 235.5v154l-345 -26q-149 -11 -226.5 -70.5t-77.5 -162.5zM304 1323q0 27 20 46.5t48 19.5q27 0 47 -19.5t20 -46.5q0 -28 -20 -47.5t-47 -19.5q-28 0 -48 19.5t-20 47.5zM609 1323q0 27 20 46.5t47 19.5 q28 0 48 -19.5t20 -46.5q0 -28 -20 -47.5t-48 -19.5q-27 0 -47 19.5t-20 47.5z" />
<glyph unicode="&#x4d4;" horiz-adv-x="1857" d="M26 0l722 1443h1021v-73h-712v-597h676v-72h-676v-628h712v-73h-790v422h-659l-210 -422h-84zM354 492h625v881h-184z" />
<glyph unicode="&#x4d5;" horiz-adv-x="1787" d="M93 277q0 127 93.5 199.5t274.5 84.5l359 22v122q0 131 -80.5 205t-219.5 74q-133 0 -217.5 -65.5t-100.5 -180.5h-75q14 143 120.5 229.5t270.5 86.5q149 0 247 -73.5t111 -201.5h6q45 125 149 200t250 75q199 0 316.5 -135t117.5 -361v-45h-818v-8q0 -204 105.5 -327 t280.5 -123q135 0 224.5 65.5t113.5 170.5h78q-26 -135 -138.5 -220t-277.5 -85q-150 0 -257 75t-155 216h-5q-43 -135 -155.5 -213t-263.5 -78q-159 0 -256.5 80.5t-97.5 210.5zM171 278q0 -99 77 -161t201 -62q155 0 263 97t108 237v129l-348 -22q-148 -10 -224.5 -65.5 t-76.5 -152.5zM898 578h738q-1 184 -99 295.5t-260 111.5q-163 0 -266.5 -112t-112.5 -295z" />
<glyph unicode="&#x4d6;" horiz-adv-x="1067" d="M138 0v1443h841v-73h-762v-594h726v-72h-726v-631h762v-73h-841zM295 1789h64q0 -84 57 -133t149 -49t149 49t57 133h64q0 -109 -74.5 -172.5t-195.5 -63.5t-195.5 63.5t-74.5 172.5z" />
<glyph unicode="&#x4d7;" horiz-adv-x="1046" d="M73 519q0 242 125 388.5t331 146.5q202 0 324 -138t122 -365v-44h-823v-4q0 -209 105 -328.5t281 -119.5q138 0 230 65.5t116 170.5h78q-26 -135 -140.5 -220t-284.5 -85q-213 0 -338.5 142t-125.5 391zM153 572h742q-1 185 -102 299t-265 114q-161 0 -264 -113.5 t-111 -299.5zM270 1503h65q0 -91 56 -144.5t152 -53.5t152 53.5t56 144.5h65q0 -117 -74 -185t-199 -68t-199 68t-74 185z" />
<glyph unicode="&#x4d8;" horiz-adv-x="1375" d="M70 678v49h1144v18q1 293 -150.5 470t-410.5 177q-163 0 -289.5 -75.5t-183.5 -211.5h-81q58 165 208.5 263.5t345.5 98.5q297 0 470.5 -200t173.5 -540q0 -341 -169.5 -546t-452.5 -205q-280 0 -441.5 187.5t-163.5 514.5zM155 655q5 -277 146 -440.5t375 -163.5 q226 0 373 166t163 438h-1057z" />
<glyph unicode="&#x4d9;" horiz-adv-x="1046" d="M72 503l2 45h822v3q0 195 -109.5 315.5t-283.5 120.5q-237 0 -330 -196h-80q49 127 155 196t255 69q217 0 344 -144.5t127 -390.5q0 -245 -124.5 -391t-335.5 -146q-205 0 -323.5 139t-118.5 380zM151 483q2 -198 100 -314t264 -116t268.5 116t111.5 314h-744z" />
<glyph unicode="&#x4da;" horiz-adv-x="1375" d="M70 678v49h1144v18q1 293 -150.5 470t-410.5 177q-163 0 -289.5 -75.5t-183.5 -211.5h-81q58 165 208.5 263.5t345.5 98.5q297 0 470.5 -200t173.5 -540q0 -341 -169.5 -546t-452.5 -205q-280 0 -441.5 187.5t-163.5 514.5zM155 655q5 -277 146 -440.5t375 -163.5 q226 0 373 166t163 438h-1057zM433 1630q0 27 20 46.5t48 19.5q27 0 47 -19.5t20 -46.5q0 -28 -20 -47.5t-47 -19.5q-28 0 -48 19.5t-20 47.5zM738 1630q0 27 20 46.5t47 19.5q28 0 48 -19.5t20 -46.5q0 -28 -20 -47.5t-48 -19.5q-27 0 -47 19.5t-20 47.5z" />
<glyph unicode="&#x4db;" horiz-adv-x="1046" d="M72 503l2 45h822v3q0 195 -109.5 315.5t-283.5 120.5q-237 0 -330 -196h-80q49 127 155 196t255 69q217 0 344 -144.5t127 -390.5q0 -245 -124.5 -391t-335.5 -146q-205 0 -323.5 139t-118.5 380zM151 483q2 -198 100 -314t264 -116t268.5 116t111.5 314h-744zM297 1323 q0 27 20 46.5t48 19.5q27 0 47 -19.5t20 -46.5q0 -28 -20 -47.5t-47 -19.5q-28 0 -48 19.5t-20 47.5zM602 1323q0 27 20 46.5t47 19.5q28 0 48 -19.5t20 -46.5q0 -28 -20 -47.5t-48 -19.5q-27 0 -47 19.5t-20 47.5z" />
<glyph unicode="&#x4dc;" horiz-adv-x="1804" d="M19 0l756 745l-702 698h107l676 -679h5v679h80v-679h5l677 679h104l-700 -696l757 -747h-111l-727 718h-5v-718h-80v718h-5l-728 -718h-109zM688 1630q0 27 20 46.5t48 19.5q27 0 47 -19.5t20 -46.5q0 -28 -20 -47.5t-47 -19.5q-28 0 -48 19.5t-20 47.5zM993 1630 q0 27 20 46.5t47 19.5q28 0 48 -19.5t20 -46.5q0 -28 -20 -47.5t-48 -19.5q-27 0 -47 19.5t-20 47.5z" />
<glyph unicode="&#x4dd;" horiz-adv-x="1379" d="M25 0l545 541l-522 499h103l495 -477h3v477h77v-477h4l495 477h101l-519 -496l546 -544h-107l-516 516h-4v-516h-77v516h-3l-517 -516h-104zM480 1323q0 27 20 46.5t48 19.5q27 0 47 -19.5t20 -46.5q0 -28 -20 -47.5t-47 -19.5q-28 0 -48 19.5t-20 47.5zM785 1323 q0 27 20 46.5t47 19.5q28 0 48 -19.5t20 -46.5q0 -28 -20 -47.5t-48 -19.5q-27 0 -47 19.5t-20 47.5z" />
<glyph unicode="&#x4de;" horiz-adv-x="1121" d="M65 361h78q10 -131 127.5 -222t288.5 -91q188 0 302.5 97.5t114.5 246.5q0 154 -110.5 237t-325.5 83h-174v72h172q178 0 282.5 85.5t104.5 223.5q0 130 -99.5 216t-263.5 86q-154 0 -256 -83t-120 -215h-77q18 165 141 268t314 103q195 0 318 -106t123 -265 q0 -130 -81.5 -221.5t-224.5 -119.5v-5q169 -13 263.5 -110t94.5 -251q0 -178 -138.5 -296t-360.5 -118q-207 0 -345 111t-148 274zM337 1630q0 27 20 46.5t48 19.5q27 0 47 -19.5t20 -46.5q0 -28 -20 -47.5t-47 -19.5q-28 0 -48 19.5t-20 47.5zM642 1630q0 27 20 46.5 t47 19.5q28 0 48 -19.5t20 -46.5q0 -28 -20 -47.5t-48 -19.5q-27 0 -47 19.5t-20 47.5z" />
<glyph unicode="&#x4df;" horiz-adv-x="909" d="M62 265h78q22 -96 105.5 -156.5t216.5 -60.5q135 0 215.5 62.5t80.5 169.5q0 112 -80.5 167.5t-225.5 55.5h-167v66h167q127 0 198.5 57t71.5 154q0 94 -69 150.5t-190 56.5q-126 0 -205.5 -62t-101.5 -162h-76q24 129 122 210.5t260 81.5q157 0 247 -73.5t90 -198.5 q0 -91 -58.5 -156.5t-149.5 -83.5v-4q107 -15 175.5 -80.5t68.5 -173.5q0 -143 -102 -223.5t-271 -80.5q-166 0 -271.5 77.5t-128.5 206.5zM241 1323q0 27 20 46.5t48 19.5q27 0 47 -19.5t20 -46.5q0 -28 -20 -47.5t-47 -19.5q-28 0 -48 19.5t-20 47.5zM546 1323 q0 27 20 46.5t47 19.5q28 0 48 -19.5t20 -46.5q0 -28 -20 -47.5t-48 -19.5q-27 0 -47 19.5t-20 47.5z" />
<glyph unicode="&#x4e0;" horiz-adv-x="1101" d="M65 361h77q5 -131 124 -222.5t288 -91.5q173 0 285 100t112 257q0 179 -126.5 273t-371.5 94h-81v71l492 521v7h-733v73h850v-62l-504 -535v-7q272 -2 413.5 -113.5t141.5 -321.5q0 -190 -133.5 -309t-343.5 -119q-207 0 -346.5 111t-143.5 274z" />
<glyph unicode="&#x4e1;" horiz-adv-x="987" d="M56 19h78q4 -127 103.5 -214t246.5 -87q157 0 257.5 99.5t100.5 252.5q0 162 -115.5 257.5t-321.5 95.5h-64v71l425 471v8h-664v67h765v-64l-433 -481v-7q231 -5 360 -116.5t129 -301.5q0 -183 -124 -302.5t-316 -119.5q-181 0 -302 106.5t-125 264.5z" />
<glyph unicode="&#x4e2;" horiz-adv-x="1361" d="M138 0v1443h78v-1312h8l921 1312h79v-1443h-79v1311h-7l-922 -1311h-78zM393 1622v57h580v-57h-580z" />
<glyph unicode="&#x4e3;" horiz-adv-x="1065" d="M125 0v1040h77v-919h4l657 919h77v-1040h-77v918h-4l-657 -918h-77zM249 1308v58h596v-58h-596z" />
<glyph unicode="&#x4e4;" horiz-adv-x="1361" d="M138 0v1443h78v-1312h8l921 1312h79v-1443h-79v1311h-7l-922 -1311h-78zM459 1630q0 27 20 46.5t48 19.5q27 0 47 -19.5t20 -46.5q0 -28 -20 -47.5t-47 -19.5q-28 0 -48 19.5t-20 47.5zM764 1630q0 27 20 46.5t47 19.5q28 0 48 -19.5t20 -46.5q0 -28 -20 -47.5t-48 -19.5 q-27 0 -47 19.5t-20 47.5z" />
<glyph unicode="&#x4e5;" horiz-adv-x="1065" d="M125 0v1040h77v-919h4l657 919h77v-1040h-77v918h-4l-657 -918h-77zM312 1323q0 27 20 46.5t48 19.5q27 0 47 -19.5t20 -46.5q0 -28 -20 -47.5t-47 -19.5q-28 0 -48 19.5t-20 47.5zM617 1323q0 27 20 46.5t47 19.5q28 0 48 -19.5t20 -46.5q0 -28 -20 -47.5t-48 -19.5 q-27 0 -47 19.5t-20 47.5z" />
<glyph unicode="&#x4e6;" horiz-adv-x="1440" d="M77 722q0 340 174 541t469 201t469 -201t174 -541q0 -342 -173.5 -542.5t-469.5 -200.5t-469.5 200.5t-173.5 542.5zM158 722q0 -307 152.5 -488t409.5 -181t409.5 181t152.5 488q0 306 -152.5 487t-409.5 181q-258 0 -410 -181t-152 -487zM500 1630q0 27 20 46.5 t48 19.5q27 0 47 -19.5t20 -46.5q0 -28 -20 -47.5t-47 -19.5q-28 0 -48 19.5t-20 47.5zM805 1630q0 27 20 46.5t47 19.5q28 0 48 -19.5t20 -46.5q0 -28 -20 -47.5t-48 -19.5q-27 0 -47 19.5t-20 47.5z" />
<glyph unicode="&#x4e7;" horiz-adv-x="1072" d="M73 520q0 244 127 389t336 145q210 0 337 -144.5t127 -389.5q0 -244 -127 -389t-337 -145q-209 0 -336 145t-127 389zM151 520q0 -214 104.5 -339t280.5 -125t281 125.5t105 338.5q0 214 -105 339t-281 125t-280.5 -125t-104.5 -339zM316 1322q0 27 20 46.5t48 19.5 q27 0 47 -19.5t20 -46.5q0 -28 -20 -47.5t-47 -19.5q-28 0 -48 19.5t-20 47.5zM621 1322q0 27 20 46.5t47 19.5q28 0 48 -19.5t20 -46.5q0 -28 -20 -47.5t-48 -19.5q-27 0 -47 19.5t-20 47.5z" />
<glyph unicode="&#x4e8;" horiz-adv-x="1438" d="M77 722q0 344 173 544.5t470 200.5t469 -200.5t172 -544.5q0 -345 -172 -545.5t-469 -200.5q-299 0 -471 200t-172 546zM158 707q4 -300 156 -478.5t406 -178.5q253 0 404.5 178.5t155.5 478.5h-1122zM159 775h1120q-14 284 -164 451t-395 167t-396 -167t-165 -451z" />
<glyph unicode="&#x4e9;" horiz-adv-x="1073" d="M72 520q0 247 125.5 391.5t338.5 144.5t338.5 -144.5t125.5 -391.5t-125.5 -391.5t-338.5 -144.5t-338.5 144.5t-125.5 391.5zM151 502q5 -206 108.5 -327t276.5 -121t277 121t109 327h-771zM152 568h769q-12 193 -115.5 305.5t-269.5 112.5t-269 -112.5t-115 -305.5z " />
<glyph unicode="&#x4ea;" horiz-adv-x="1438" d="M77 722q0 344 173 544.5t470 200.5t469 -200.5t172 -544.5q0 -345 -172 -545.5t-469 -200.5q-299 0 -471 200t-172 546zM158 707q4 -300 156 -478.5t406 -178.5q253 0 404.5 178.5t155.5 478.5h-1122zM159 775h1120q-14 284 -164 451t-395 167t-396 -167t-165 -451z M499 1630q0 27 20 46.5t48 19.5q27 0 47 -19.5t20 -46.5q0 -28 -20 -47.5t-47 -19.5q-28 0 -48 19.5t-20 47.5zM804 1630q0 27 20 46.5t47 19.5q28 0 48 -19.5t20 -46.5q0 -28 -20 -47.5t-48 -19.5q-27 0 -47 19.5t-20 47.5z" />
<glyph unicode="&#x4eb;" horiz-adv-x="1073" d="M72 520q0 247 125.5 391.5t338.5 144.5t338.5 -144.5t125.5 -391.5t-125.5 -391.5t-338.5 -144.5t-338.5 144.5t-125.5 391.5zM151 502q5 -206 108.5 -327t276.5 -121t277 121t109 327h-771zM152 568h769q-12 193 -115.5 305.5t-269.5 112.5t-269 -112.5t-115 -305.5z M321 1323q0 27 20 46.5t48 19.5q27 0 47 -19.5t20 -46.5q0 -28 -20 -47.5t-47 -19.5q-28 0 -48 19.5t-20 47.5zM626 1323q0 27 20 46.5t47 19.5q28 0 48 -19.5t20 -46.5q0 -28 -20 -47.5t-48 -19.5q-27 0 -47 19.5t-20 47.5z" />
<glyph unicode="&#x4ec;" horiz-adv-x="1353" d="M67 422h80q26 -163 166.5 -266t335.5 -103q248 0 395.5 177t150.5 475h-736v72h734q-11 281 -158 447t-386 166q-185 0 -330 -113.5t-172 -281.5h-80q18 132 100.5 239.5t209.5 168.5t272 61q290 0 458.5 -200.5t168.5 -541.5q0 -344 -167.5 -543.5t-459.5 -199.5 q-234 0 -394 121.5t-188 321.5zM431 1630q0 27 20 46.5t48 19.5q27 0 47 -19.5t20 -46.5q0 -28 -20 -47.5t-47 -19.5q-28 0 -48 19.5t-20 47.5zM736 1630q0 27 20 46.5t47 19.5q28 0 48 -19.5t20 -46.5q0 -28 -20 -47.5t-48 -19.5q-27 0 -47 19.5t-20 47.5z" />
<glyph unicode="&#x4ed;" horiz-adv-x="1012" d="M69 747q30 134 143.5 220.5t271.5 86.5q209 0 332 -144.5t123 -389.5q0 -246 -123 -390t-332 -144q-157 0 -269 80t-144 212h78q31 -101 120.5 -161.5t213.5 -60.5q172 0 273.5 121.5t103.5 328.5h-550v66h548q-11 190 -111 301t-263 111q-126 0 -217.5 -66t-120.5 -171 h-77zM280 1323q0 27 20 46.5t48 19.5q27 0 47 -19.5t20 -46.5q0 -28 -20 -47.5t-47 -19.5q-28 0 -48 19.5t-20 47.5zM585 1323q0 27 20 46.5t47 19.5q28 0 48 -19.5t20 -46.5q0 -28 -20 -47.5t-48 -19.5q-27 0 -47 19.5t-20 47.5z" />
<glyph unicode="&#x4ee;" horiz-adv-x="1138" d="M32 1443h87l462 -1005h8l436 1005h84l-468 -1062q-29 -66 -51.5 -112.5t-50.5 -94.5t-55.5 -78.5t-61 -56t-72.5 -37t-85 -11.5q-44 0 -69 10v73q27 -9 69 -9q89 0 151 70t127 210zM299 1622v57h580v-57h-580z" />
<glyph unicode="&#x4ef;" horiz-adv-x="923" d="M22 1040h84l354 -965h3l354 965h83l-410 -1090q-70 -186 -130 -247.5t-171 -61.5q-30 0 -53 7v69q24 -8 55 -8q69 0 112.5 43t83.5 149l33 85zM179 1308v58h596v-58h-596z" />
<glyph unicode="&#x4f0;" horiz-adv-x="1138" d="M32 1443h87l462 -1005h8l436 1005h84l-468 -1062q-29 -66 -51.5 -112.5t-50.5 -94.5t-55.5 -78.5t-61 -56t-72.5 -37t-85 -11.5q-44 0 -69 10v73q27 -9 69 -9q89 0 151 70t127 210zM367 1630q0 27 20 46.5t48 19.5q27 0 47 -19.5t20 -46.5q0 -28 -20 -47.5t-47 -19.5 q-28 0 -48 19.5t-20 47.5zM672 1630q0 27 20 46.5t47 19.5q28 0 48 -19.5t20 -46.5q0 -28 -20 -47.5t-48 -19.5q-27 0 -47 19.5t-20 47.5z" />
<glyph unicode="&#x4f1;" horiz-adv-x="923" d="M22 1040h84l354 -965h3l354 965h83l-410 -1090q-70 -186 -130 -247.5t-171 -61.5q-30 0 -53 7v69q24 -8 55 -8q69 0 112.5 43t83.5 149l33 85zM255 1323q0 27 20 46.5t48 19.5q27 0 47 -19.5t20 -46.5q0 -28 -20 -47.5t-47 -19.5q-28 0 -48 19.5t-20 47.5zM560 1323 q0 27 20 46.5t47 19.5q28 0 48 -19.5t20 -46.5q0 -28 -20 -47.5t-48 -19.5q-27 0 -47 19.5t-20 47.5z" />
<glyph unicode="&#x4f2;" horiz-adv-x="1138" d="M32 1443h87l462 -1005h8l436 1005h84l-468 -1062q-29 -66 -51.5 -112.5t-50.5 -94.5t-55.5 -78.5t-61 -56t-72.5 -37t-85 -11.5q-44 0 -69 10v73q27 -9 69 -9q89 0 151 70t127 210zM403 1553l280 290h93l-298 -290h-75zM670 1553l280 290h92l-297 -290h-75z" />
<glyph unicode="&#x4f3;" horiz-adv-x="923" d="M22 1040h84l354 -965h3l354 965h83l-410 -1090q-70 -186 -130 -247.5t-171 -61.5q-30 0 -53 7v69q24 -8 55 -8q69 0 112.5 43t83.5 149l33 85zM325 1253l226 303h92l-247 -303h-71zM569 1253l226 303h92l-247 -303h-71z" />
<glyph unicode="&#x4f4;" horiz-adv-x="1226" d="M109 1054v389h79v-384q0 -191 115.5 -300t307.5 -109q76 0 146 17t119.5 43.5t81.5 49.5t51 44v639h79v-1443h-79v713h-6q-59 -55 -160.5 -96t-231.5 -41q-232 0 -367 131t-135 347zM379 1630q0 27 20 46.5t48 19.5q27 0 47 -19.5t20 -46.5q0 -28 -20 -47.5t-47 -19.5 q-28 0 -48 19.5t-20 47.5zM684 1630q0 27 20 46.5t47 19.5q28 0 48 -19.5t20 -46.5q0 -28 -20 -47.5t-48 -19.5q-27 0 -47 19.5t-20 47.5z" />
<glyph unicode="&#x4f5;" horiz-adv-x="976" d="M97 764v276h77v-275q0 -140 79.5 -222t226.5 -82q178 0 294 128v451h77v-1040h-77v497h-9q-112 -106 -288 -106q-184 0 -282 101t-98 272zM283 1323q0 27 20 46.5t48 19.5q27 0 47 -19.5t20 -46.5q0 -28 -20 -47.5t-47 -19.5q-28 0 -48 19.5t-20 47.5zM588 1323 q0 27 20 46.5t47 19.5q28 0 48 -19.5t20 -46.5q0 -28 -20 -47.5t-48 -19.5q-27 0 -47 19.5t-20 47.5z" />
<glyph unicode="&#x4f6;" horiz-adv-x="1024" d="M138 0v1443h824v-73h-745v-1297h200v-358h-76v285h-124h-67h-12z" />
<glyph unicode="&#x4f7;" horiz-adv-x="831" d="M125 0v67v973h652v-67h-575v-906h171v-342h-74v275h-97h-77z" />
<glyph unicode="&#x4f8;" horiz-adv-x="1509" d="M138 0v1443h79v-588h387q210 0 337 -116.5t127 -310.5t-126.5 -311t-337.5 -117h-466zM217 73h374q184 0 290.5 95.5t106.5 259.5t-107 259.5t-290 95.5h-374v-710zM534 1630q0 27 20 46.5t48 19.5q27 0 47 -19.5t20 -46.5q0 -28 -20 -47.5t-47 -19.5q-28 0 -48 19.5 t-20 47.5zM839 1630q0 27 20 46.5t47 19.5q28 0 48 -19.5t20 -46.5q0 -28 -20 -47.5t-48 -19.5q-27 0 -47 19.5t-20 47.5zM1292 0v1443h79v-1443h-79z" />
<glyph unicode="&#x4f9;" horiz-adv-x="1242" d="M125 0v1040h77v-380h264q163 0 260.5 -89t97.5 -241q0 -151 -97.5 -240.5t-260.5 -89.5h-341zM202 67h263q129 0 205.5 72t76.5 191q0 120 -77 191.5t-205 71.5h-263v-526zM385 1323q0 27 20 46.5t48 19.5q27 0 47 -19.5t20 -46.5q0 -28 -20 -47.5t-47 -19.5 q-28 0 -48 19.5t-20 47.5zM690 1323q0 27 20 46.5t47 19.5q28 0 48 -19.5t20 -46.5q0 -28 -20 -47.5t-48 -19.5q-27 0 -47 19.5t-20 47.5zM1010 0v1040h77v-1040h-77z" />
<glyph unicode="&#x4fa;" horiz-adv-x="1073" d="M-21 -294h16q99 0 145 48t46 154v92v297v401h-122v66h122v679h824v-73h-745v-606h609v-66h-609v-401h1v-385q0 -145 -67 -210.5t-202 -65.5h-18v70z" />
<glyph unicode="&#x4fb;" horiz-adv-x="867" d="M-39 -282h15q94 0 139 46t45 148v375h1v215h-115v67h115v471h652v-67h-575v-404h440v-67h-440v-502h-1v-85q0 -139 -65 -202t-194 -63h-17v68z" />
<glyph unicode="&#x4fc;" horiz-adv-x="1235" d="M52 0l517 722l-515 721h95l468 -656h4l470 656h92l-518 -722l331 -462q57 -78 116 -178q78 -128 78 -230q0 -100 -65.5 -159t-177.5 -59q-45 0 -76 6v74q26 -7 71 -7q79 0 122 36.5t43 103.5q0 90 -64 194q-69 116 -117 183l-308 432h-4l-470 -655h-92z" />
<glyph unicode="&#x4fd;" horiz-adv-x="889" d="M19 1040h95l329 -452h7l327 452h93l-381 -511l215 -301q52 -74 105 -161q70 -111 70 -202q0 -97 -63 -156t-167 -59q-53 0 -75 7v72q36 -6 66 -6q78 0 120.5 36.5t42.5 101.5q0 76 -64 178q-61 101 -98 154l-194 273h-7l-330 -466h-90l381 527z" />
<glyph unicode="&#x4fe;" horiz-adv-x="1235" d="M52 0l495 692h-382v68h377l-488 683h95l469 -658h2l471 658h92l-491 -683h377v-68h-384l495 -692h-95l-468 656h-2l-471 -656h-92z" />
<glyph unicode="&#x4ff;" horiz-adv-x="888" d="M19 0l359 497h-278v64h276l-355 479h92l331 -453h3l331 453h91l-357 -479h278v-64h-277l354 -497h-90l-332 467h-3l-333 -467h-90z" />
<glyph unicode="&#x2000;" horiz-adv-x="921" />
<glyph unicode="&#x2001;" horiz-adv-x="1843" />
<glyph unicode="&#x2002;" horiz-adv-x="921" />
<glyph unicode="&#x2003;" horiz-adv-x="1843" />
<glyph unicode="&#x2004;" horiz-adv-x="614" />
<glyph unicode="&#x2005;" horiz-adv-x="460" />
<glyph unicode="&#x2006;" horiz-adv-x="307" />
<glyph unicode="&#x2007;" horiz-adv-x="307" />
<glyph unicode="&#x2008;" horiz-adv-x="230" />
<glyph unicode="&#x2009;" horiz-adv-x="368" />
<glyph unicode="&#x200a;" horiz-adv-x="102" />
<glyph unicode="&#x2010;" horiz-adv-x="868" d="M106 539v73h656v-73h-656z" />
<glyph unicode="&#x2011;" horiz-adv-x="868" d="M106 539v73h656v-73h-656z" />
<glyph unicode="&#x2012;" horiz-adv-x="868" d="M106 539v73h656v-73h-656z" />
<glyph unicode="&#x2013;" horiz-adv-x="1024" d="M0 550v73h1024v-73h-1024z" />
<glyph unicode="&#x2014;" horiz-adv-x="2048" d="M0 550v73h2048v-73h-2048z" />
<glyph unicode="&#x2018;" horiz-adv-x="404" d="M98 984l136 459h72l-130 -459h-78z" />
<glyph unicode="&#x2019;" horiz-adv-x="404" d="M108 984l131 459h78l-137 -459h-72z" />
<glyph unicode="&#x201a;" horiz-adv-x="418" d="M96 -360l130 459h78l-136 -459h-72z" />
<glyph unicode="&#x201c;" horiz-adv-x="657" d="M98 984l122 459h72l-116 -459h-78zM365 984l122 459h72l-116 -459h-78z" />
<glyph unicode="&#x201d;" horiz-adv-x="657" d="M108 984l116 459h78l-122 -459h-72zM375 984l116 459h78l-122 -459h-72z" />
<glyph unicode="&#x201e;" horiz-adv-x="671" d="M96 -360l116 459h78l-122 -459h-72zM363 -360l116 459h78l-122 -459h-72z" />
<glyph unicode="&#x2022;" horiz-adv-x="953" d="M265 558q0 88 62.5 150t149.5 62t149.5 -62t62.5 -150q0 -87 -62.5 -149.5t-149.5 -62.5t-149.5 62.5t-62.5 149.5z" />
<glyph unicode="&#x2026;" horiz-adv-x="1459" d="M178 60q0 29 20.5 49.5t49.5 20.5t49.5 -20.5t20.5 -49.5t-20.5 -49.5t-49.5 -20.5t-49.5 20.5t-20.5 49.5zM660 60q0 29 20.5 49.5t49.5 20.5t49.5 -20.5t20.5 -49.5t-20.5 -49.5t-49.5 -20.5t-49.5 20.5t-20.5 49.5zM1141 60q0 29 21 49.5t50 20.5t49.5 -20.5 t20.5 -49.5t-20.5 -49.5t-49.5 -20.5t-50 20.5t-21 49.5z" />
<glyph unicode="&#x202f;" horiz-adv-x="368" />
<glyph unicode="&#x2039;" horiz-adv-x="771" d="M153 565v5l370 409h95l-366 -408v-8l366 -408h-95z" />
<glyph unicode="&#x203a;" horiz-adv-x="771" d="M153 155l365 408v8l-365 408h95l370 -409v-5l-370 -410h-95z" />
<glyph unicode="&#x205f;" horiz-adv-x="460" />
<glyph unicode="&#x20ac;" d="M44 544v65h247q-6 54 -6 113q0 48 5 101h-246v66h255q23 139 87 249t155.5 181t205.5 108t242 37q99 0 152 -14v-74q-53 14 -152 14q-229 0 -395.5 -130.5t-212.5 -370.5h584v-66h-594q-5 -55 -5 -102q0 -62 7 -112h592v-65h-582q47 -235 213 -363.5t393 -128.5 q99 0 152 14v-73q-53 -14 -152 -14q-170 0 -312 63t-242.5 192t-133.5 310h-257z" />
<glyph unicode="&#x2122;" horiz-adv-x="1513" d="M15 1383v60h560v-60h-247v-647h-65v647h-248zM694 736v707h81l262 -584h1l262 584h82v-707h-64v595h-1l-259 -566h-41l-258 566h-1v-595h-64z" />
<glyph unicode="&#x25fc;" horiz-adv-x="1040" d="M0 0v1040h1040v-1040h-1040z" />
</font>
</defs>
</svg>
